<?xml version="1.0" encoding="utf-8"?>
<!-- Generator: Adobe Illustrator 23.1.0, SVG Export Plug-In . SVG Version: 6.00 Build 0)  -->
<svg version="1.1" id="Capa_1" xmlns="http://www.w3.org/2000/svg" xmlns:xlink="http://www.w3.org/1999/xlink" x="0px" y="0px"
	 viewBox="0 0 336 54" style="enable-background:new 0 0 336 54;" xml:space="preserve">
<style type="text/css">
	.st0{fill:#FFFFFF;}
	.st1{fill:#FFFFFF;filter:url(#Adobe_OpacityMaskFilter);}
	.st2{mask:url(#mask0_1_);}
	.st3{fill:#8EFFDD;}
	.st4{fill:#876969;}
	.st5{fill:#FF4026;}
</style>
<path class="st0" d="M20,14h296c11,0,20,9,20,20l0,0c0,11-9,20-20,20H20C9,54,0,45,0,34l0,0C0,23,9,14,20,14z"/>
<defs>
	<filter id="Adobe_OpacityMaskFilter" filterUnits="userSpaceOnUse" x="0" y="-2" width="85" height="56">
		<feColorMatrix  type="matrix" values="1 0 0 0 0  0 1 0 0 0  0 0 1 0 0  0 0 0 1 0"/>
	</filter>
</defs>
<mask maskUnits="userSpaceOnUse" x="0" y="-2" width="85" height="56" id="mask0_1_">
	<path class="st1" d="M20,14h296c11,0,20,9,20,20l0,0c0,11-9,20-20,20H20C9,54,0,45,0,34l0,0C0,23,9,14,20,14z"/>
</mask>
<g class="st2">
	<rect y="-2" class="st3" width="85" height="56"/>
</g>
<path class="st4" d="M13.8,32.2c-0.2,0.1-0.4,0.2-0.6,0.1C13.1,32.2,13,32,13,31.8v-0.8c0-0.7,0.3-1.3,0.9-1.7l2-1.6
	c0.6-0.4,1.2-0.6,1.9-0.6h0.6c0.3,0,0.5,0.1,0.7,0.3c0.2,0.2,0.3,0.5,0.3,0.8v11.7c0,0.3-0.1,0.5-0.3,0.8c-0.2,0.2-0.4,0.3-0.7,0.3
	h-0.6c-0.3,0-0.5-0.1-0.8-0.3c-0.2-0.2-0.3-0.5-0.3-0.8v-9.9l0,0l0,0L13.8,32.2z M24.5,41.8c-0.3,0-0.4-0.1-0.6-0.3
	c-0.1-0.2-0.1-0.4,0-0.7l5.7-12.7c0.1-0.3,0.3-0.5,0.6-0.7c0.3-0.2,0.6-0.3,0.9-0.3h0.2c0.3,0,0.5,0.1,0.6,0.3
	c0.1,0.2,0.2,0.4,0,0.7l-5.7,12.7c-0.1,0.3-0.3,0.5-0.6,0.7c-0.3,0.2-0.6,0.3-0.9,0.3H24.5z M35.3,29.3c-0.3,0-0.5-0.1-0.8-0.3
	c-0.2-0.2-0.3-0.5-0.3-0.8s0.1-0.5,0.3-0.8c0.2-0.2,0.5-0.3,0.8-0.3h7.3c0.3,0,0.5,0.1,0.8,0.3c0.2,0.2,0.3,0.5,0.3,0.8
	c0,0.7-0.2,1.4-0.6,2c-1.7,2.9-3.1,6.1-4.3,9.7c-0.1,0.3-0.3,0.6-0.6,0.7C38,40.9,37.7,41,37.4,41h-0.7c-0.3,0-0.5-0.1-0.6-0.3
	S35.9,40.2,36,40c1.4-3.9,3.1-7.4,5.1-10.6v0c0,0,0,0,0,0H35.3z M46.3,41.8c-0.3,0-0.4-0.1-0.6-0.3c-0.1-0.2-0.1-0.4,0-0.7l5.7-12.7
	c0.1-0.3,0.3-0.5,0.6-0.7c0.3-0.2,0.6-0.3,0.9-0.3h0.2c0.3,0,0.5,0.1,0.6,0.3c0.1,0.2,0.2,0.4,0,0.7l-5.7,12.7
	c-0.1,0.3-0.3,0.5-0.6,0.7c-0.3,0.2-0.6,0.3-0.9,0.3H46.3z M65.2,31c0,1.2-0.4,2.3-1.1,3.4c-0.7,1.1-2.2,2.5-4.4,4.4c0,0,0,0,0,0.1
	s0,0,0,0h4.5c0.3,0,0.5,0.1,0.8,0.3c0.2,0.2,0.3,0.5,0.3,0.7c0,0.3-0.1,0.5-0.3,0.8S64.4,41,64.1,41h-7c-0.3,0-0.5-0.1-0.8-0.3
	c-0.2-0.2-0.3-0.5-0.3-0.8c0-0.7,0.3-1.3,0.8-1.7c2.2-1.7,3.7-3.1,4.4-4.1c0.7-1,1.1-1.9,1.1-2.8c0-1.4-0.8-2.1-2.3-2.1
	c-0.8,0-1.7,0.2-2.8,0.6c-0.2,0.1-0.5,0.1-0.7-0.1c-0.2-0.1-0.3-0.3-0.3-0.6v-0.3c0-0.3,0.1-0.6,0.3-0.9c0.2-0.3,0.4-0.5,0.7-0.6
	c1.1-0.3,2.1-0.5,3.2-0.5c1.5,0,2.6,0.4,3.4,1.1S65.2,29.7,65.2,31z M74.7,30.2c-0.4-0.8-1.1-1.1-2-1.1c-0.9,0-1.5,0.4-2,1.1
	c-0.4,0.8-0.6,2.1-0.6,3.9s0.2,3.2,0.6,3.9c0.4,0.8,1.1,1.1,2,1.1c0.9,0,1.5-0.4,2-1.1c0.4-0.8,0.6-2.1,0.6-3.9S75.2,30.9,74.7,30.2
	z M76.8,39.5c-0.9,1.1-2.2,1.7-4,1.7c-1.8,0-3.1-0.6-4-1.7c-0.9-1.1-1.3-2.9-1.3-5.4s0.4-4.3,1.3-5.4c0.9-1.1,2.2-1.7,4-1.7
	c1.8,0,3.1,0.6,4,1.7c0.9,1.1,1.3,2.9,1.3,5.4S77.6,38.4,76.8,39.5z"/>
<path class="st4" d="M97,34.5v2.9c0,0.1,0,0.1,0.1,0.1c0.3,0,0.6,0.1,0.9,0.1c0.8,0,1.3-0.1,1.7-0.4c0.4-0.3,0.5-0.7,0.5-1.3
	c0-0.5-0.2-0.9-0.6-1.1c-0.4-0.3-1.1-0.4-2.1-0.4h-0.5C97.1,34.4,97,34.4,97,34.5z M97,30.4v2.4c0,0.1,0,0.1,0.1,0.1h0.4
	c0.9,0,1.5-0.1,1.9-0.3c0.4-0.2,0.6-0.6,0.6-1.1c0-0.4-0.2-0.8-0.5-1c-0.3-0.2-0.8-0.3-1.6-0.3c-0.3,0-0.6,0-0.8,0.1
	C97.1,30.2,97,30.3,97,30.4z M95.9,39c-0.2,0-0.4-0.1-0.6-0.3c-0.1-0.2-0.2-0.4-0.2-0.6v-8.5c0-0.2,0.1-0.4,0.2-0.6
	c0.1-0.2,0.3-0.3,0.6-0.3c0.7-0.1,1.4-0.1,2-0.1c2.6,0,3.9,0.9,3.9,2.6c0,0.6-0.2,1.1-0.6,1.5c-0.4,0.4-0.9,0.7-1.5,0.8c0,0,0,0,0,0
	c0,0,0,0,0,0c0.8,0.1,1.4,0.4,1.8,0.9c0.4,0.4,0.7,1,0.7,1.7c0,1-0.3,1.8-1,2.3s-1.7,0.8-3.1,0.8C97.3,39.1,96.6,39.1,95.9,39z
	 M107.9,33.5c-0.3-0.4-0.7-0.6-1.2-0.6c-0.6,0-1,0.2-1.2,0.6c-0.3,0.4-0.4,1-0.4,1.8s0.1,1.5,0.4,1.8c0.3,0.4,0.7,0.6,1.2,0.6
	c0.6,0,1-0.2,1.2-0.6c0.3-0.4,0.4-1,0.4-1.8S108.2,33.9,107.9,33.5z M109.3,38.2c-0.6,0.7-1.5,1-2.6,1c-1.1,0-2-0.3-2.6-1
	c-0.6-0.7-0.9-1.6-0.9-2.8s0.3-2.1,0.9-2.8c0.6-0.7,1.5-1,2.6-1c1.1,0,2,0.3,2.6,1c0.6,0.7,0.9,1.6,0.9,2.8S109.9,37.5,109.3,38.2z
	 M112.5,39c-0.2,0-0.4-0.1-0.6-0.2c-0.2-0.2-0.2-0.3-0.2-0.6v-5.7c0-0.2,0.1-0.4,0.2-0.6c0.2-0.2,0.3-0.2,0.6-0.2h0.2
	c0.2,0,0.4,0.1,0.6,0.2c0.2,0.1,0.2,0.3,0.3,0.6v0.1c0,0,0,0,0,0c0,0,0,0,0,0c0.6-0.7,1.4-1,2.2-1s1.5,0.2,1.8,0.7
	c0.4,0.5,0.6,1.3,0.6,2.4v3.5c0,0.2-0.1,0.4-0.2,0.6c-0.2,0.2-0.3,0.2-0.6,0.2h-0.2c-0.2,0-0.4-0.1-0.6-0.2
	c-0.1-0.2-0.2-0.3-0.2-0.6v-3.4c0-0.7-0.1-1.2-0.3-1.4c-0.2-0.3-0.5-0.4-1-0.4c-0.4,0-0.7,0.2-1.1,0.5c-0.3,0.3-0.5,0.7-0.5,1.1v3.6
	c0,0.2-0.1,0.4-0.2,0.6c-0.2,0.2-0.3,0.2-0.6,0.2H112.5z M127,33c-1.1,0-1.6,0.8-1.6,2.4c0,0.8,0.1,1.4,0.4,1.8
	c0.3,0.4,0.7,0.6,1.2,0.6c0.4,0,0.8-0.1,1.1-0.4s0.5-0.6,0.5-1v-1.9c0-0.4-0.2-0.7-0.5-1S127.5,33,127,33z M126.5,39.1
	c-0.8,0-1.5-0.3-2.1-1c-0.6-0.7-0.8-1.6-0.8-2.8c0-1.2,0.3-2.1,0.8-2.8c0.5-0.7,1.2-1,2.1-1c0.8,0,1.5,0.3,2.1,0.9c0,0,0,0,0,0
	c0,0,0,0,0,0v-3.1c0-0.2,0.1-0.4,0.2-0.6c0.2-0.2,0.3-0.2,0.6-0.2h0.3c0.2,0,0.4,0.1,0.6,0.2c0.2,0.2,0.2,0.3,0.2,0.6v8.9
	c0,0.2-0.1,0.4-0.2,0.6c-0.2,0.2-0.3,0.2-0.6,0.2h-0.2c-0.2,0-0.4-0.1-0.6-0.2c-0.1-0.2-0.2-0.4-0.2-0.6l0-0.1c0,0,0,0,0,0s0,0,0,0
	C128.1,38.8,127.3,39.1,126.5,39.1z M133.7,39c-0.2,0-0.4-0.1-0.6-0.2c-0.2-0.2-0.2-0.3-0.2-0.6v-5.7c0-0.2,0.1-0.4,0.2-0.6
	c0.2-0.2,0.3-0.2,0.6-0.2h0.4c0.2,0,0.4,0.1,0.6,0.2c0.2,0.2,0.2,0.3,0.2,0.6v5.7c0,0.2-0.1,0.4-0.2,0.6c-0.2,0.2-0.3,0.2-0.6,0.2
	H133.7z M133.7,30.2c-0.2,0-0.4-0.1-0.6-0.2c-0.2-0.2-0.2-0.3-0.2-0.6v-0.1c0-0.2,0.1-0.4,0.2-0.6c0.2-0.2,0.3-0.2,0.6-0.2h0.4
	c0.2,0,0.4,0.1,0.6,0.2c0.2,0.2,0.2,0.3,0.2,0.6v0.1c0,0.2-0.1,0.4-0.2,0.6s-0.3,0.2-0.6,0.2H133.7z M140.7,35.5c-1.3,0-2,0.4-2,1.2
	c0,0.3,0.1,0.5,0.3,0.7c0.2,0.2,0.4,0.3,0.7,0.3c0.5,0,1-0.2,1.3-0.5c0.3-0.3,0.5-0.8,0.5-1.4v-0.3c0-0.1,0-0.1-0.1-0.1H140.7z
	 M139.1,39.1c-0.6,0-1.2-0.2-1.6-0.6c-0.4-0.4-0.6-1-0.6-1.6c0-0.8,0.3-1.4,0.9-1.9c0.6-0.4,1.6-0.7,2.9-0.7h0.6
	c0.1,0,0.1,0,0.1-0.1v-0.1c0-0.4-0.1-0.7-0.3-0.9c-0.2-0.2-0.6-0.3-1.1-0.3c-0.5,0-1.2,0.1-2,0.3c-0.2,0-0.3,0-0.5-0.1
	c-0.1-0.1-0.2-0.3-0.2-0.4c0-0.2,0.1-0.4,0.2-0.6c0.1-0.2,0.3-0.3,0.5-0.3c0.7-0.2,1.4-0.2,2-0.2c1.2,0,2,0.2,2.5,0.6
	s0.7,1.2,0.7,2.3v3.7c0,0.2-0.1,0.4-0.2,0.6c-0.1,0.2-0.3,0.2-0.5,0.2h-0.2c-0.2,0-0.4-0.1-0.6-0.2c-0.2-0.2-0.2-0.4-0.3-0.6V38
	c0,0,0,0,0,0c0,0,0,0,0,0C140.9,38.8,140.1,39.1,139.1,39.1z M146.7,35.9c-0.2,0-0.4-0.1-0.6-0.2c-0.2-0.2-0.2-0.4-0.3-0.6l-0.2-5.5
	c0-0.2,0.1-0.4,0.2-0.6c0.1-0.2,0.3-0.2,0.5-0.2h0.8c0.2,0,0.4,0.1,0.5,0.2c0.1,0.2,0.2,0.3,0.2,0.6l-0.2,5.5c0,0.2-0.1,0.4-0.3,0.6
	c-0.2,0.1-0.3,0.2-0.6,0.2H146.7z M147,37c0.2,0,0.4,0.1,0.5,0.2c0.2,0.2,0.2,0.3,0.2,0.6v0.4c0,0.2-0.1,0.4-0.2,0.6
	c-0.1,0.2-0.3,0.2-0.5,0.2h-0.5c-0.2,0-0.4-0.1-0.6-0.2c-0.1-0.2-0.2-0.3-0.2-0.6v-0.4c0-0.2,0.1-0.4,0.2-0.6
	c0.2-0.2,0.3-0.2,0.6-0.2H147z M156.5,30.4v7c0,0.1,0,0.1,0.1,0.1c0.3,0,0.6,0.1,0.8,0.1c1.1,0,1.9-0.3,2.4-0.9
	c0.5-0.6,0.8-1.6,0.8-2.9c0-1.2-0.3-2.1-0.8-2.7c-0.5-0.6-1.3-0.9-2.4-0.9c-0.3,0-0.5,0-0.8,0.1C156.5,30.3,156.5,30.3,156.5,30.4z
	 M155.3,39c-0.2,0-0.4-0.1-0.6-0.3c-0.1-0.2-0.2-0.4-0.2-0.6v-8.5c0-0.2,0.1-0.4,0.2-0.6c0.1-0.2,0.3-0.3,0.6-0.3
	c0.6-0.1,1.3-0.1,2-0.1c1.7,0,2.9,0.4,3.8,1.3c0.9,0.9,1.3,2.1,1.3,3.8c0,1.8-0.4,3.1-1.3,4c-0.9,0.9-2.1,1.3-3.8,1.3
	C156.6,39.1,155.9,39.1,155.3,39z M165.1,39c-0.2,0-0.4-0.1-0.6-0.2c-0.2-0.2-0.2-0.3-0.2-0.6v-5.7c0-0.2,0.1-0.4,0.2-0.6
	c0.2-0.2,0.3-0.2,0.6-0.2h0.4c0.2,0,0.4,0.1,0.6,0.2c0.2,0.2,0.2,0.3,0.2,0.6v5.7c0,0.2-0.1,0.4-0.2,0.6c-0.2,0.2-0.3,0.2-0.6,0.2
	H165.1z M165.1,30.2c-0.2,0-0.4-0.1-0.6-0.2c-0.2-0.2-0.2-0.3-0.2-0.6v-0.1c0-0.2,0.1-0.4,0.2-0.6c0.2-0.2,0.3-0.2,0.6-0.2h0.4
	c0.2,0,0.4,0.1,0.6,0.2c0.2,0.2,0.2,0.3,0.2,0.6v0.1c0,0.2-0.1,0.4-0.2,0.6c-0.2,0.2-0.3,0.2-0.6,0.2H165.1z M171.1,36.1
	c-1-0.2-1.7-0.5-2.1-0.9c-0.4-0.4-0.6-0.9-0.6-1.5c0-0.7,0.2-1.2,0.7-1.6c0.5-0.4,1.2-0.6,2.2-0.6c0.6,0,1.2,0.1,1.8,0.2
	c0.2,0,0.4,0.1,0.5,0.3c0.1,0.2,0.2,0.3,0.2,0.6c0,0.2-0.1,0.3-0.2,0.4c-0.1,0.1-0.3,0.1-0.5,0.1c-0.5-0.1-1.1-0.2-1.7-0.2
	c-0.8,0-1.3,0.2-1.3,0.7c0,0.2,0.1,0.4,0.2,0.6s0.4,0.3,0.8,0.4c1.1,0.2,1.8,0.5,2.2,0.9c0.4,0.4,0.6,0.9,0.6,1.6
	c0,0.7-0.3,1.2-0.8,1.6c-0.5,0.4-1.2,0.6-2.2,0.6c-0.6,0-1.3-0.1-1.9-0.2c-0.2,0-0.4-0.2-0.5-0.3c-0.1-0.2-0.2-0.4-0.2-0.6
	c0-0.2,0.1-0.3,0.2-0.4c0.1-0.1,0.3-0.1,0.5-0.1c0.6,0.2,1.2,0.3,1.7,0.3c0.8,0,1.3-0.3,1.3-0.8c0-0.2-0.1-0.4-0.3-0.6
	C171.9,36.3,171.6,36.2,171.1,36.1z M176.1,33.4c-0.2,0-0.3-0.1-0.5-0.2c-0.1-0.1-0.2-0.3-0.2-0.5s0.1-0.3,0.2-0.5
	c0.1-0.1,0.3-0.2,0.5-0.2h0.7c0.1,0,0.1,0,0.1-0.1v-0.3c0-1,0.2-1.7,0.7-2.2c0.4-0.5,1.1-0.7,2.1-0.7c0.3,0,0.6,0,0.8,0.1
	c0.2,0,0.4,0.1,0.5,0.3c0.1,0.2,0.2,0.3,0.2,0.5c0,0.2-0.1,0.3-0.2,0.4c-0.1,0.1-0.3,0.1-0.5,0.1c-0.2,0-0.3,0-0.4,0
	c-0.5,0-0.8,0.1-1,0.3c-0.2,0.2-0.3,0.6-0.3,1.2v0.4c0,0.1,0,0.1,0.1,0.1h1.4c0.2,0,0.3,0.1,0.5,0.2c0.1,0.1,0.2,0.3,0.2,0.5
	s-0.1,0.4-0.2,0.5c-0.1,0.1-0.3,0.2-0.5,0.2h-1.4c-0.1,0-0.1,0-0.1,0.1v4.7c0,0.2-0.1,0.4-0.2,0.6c-0.2,0.2-0.3,0.2-0.6,0.2h-0.3
	c-0.2,0-0.4-0.1-0.6-0.2c-0.1-0.2-0.2-0.3-0.2-0.6v-4.7c0-0.1,0-0.1-0.1-0.1H176.1z M183.5,39c-0.2,0-0.4-0.1-0.6-0.2
	c-0.2-0.2-0.2-0.3-0.2-0.6v-5.7c0-0.2,0.1-0.4,0.2-0.6c0.2-0.2,0.3-0.2,0.6-0.2h0.3c0.2,0,0.4,0.1,0.6,0.2c0.2,0.2,0.2,0.3,0.2,0.6
	v0.6c0,0,0,0,0,0c0,0,0,0,0,0c0.3-0.4,0.6-0.7,1.1-0.9c0.4-0.2,0.9-0.4,1.4-0.4c0.2,0,0.4,0,0.5,0.2c0.1,0.1,0.2,0.3,0.2,0.5
	s-0.1,0.4-0.2,0.5s-0.3,0.2-0.5,0.2c-1.7,0.1-2.5,1-2.5,2.5v2.5c0,0.2-0.1,0.4-0.2,0.6c-0.2,0.2-0.3,0.2-0.6,0.2H183.5z M191.8,39.1
	c-0.8,0-1.4-0.2-1.8-0.7c-0.4-0.5-0.6-1.2-0.6-2.3v-3.6c0-0.2,0.1-0.4,0.2-0.6c0.2-0.2,0.3-0.2,0.6-0.2h0.2c0.2,0,0.4,0.1,0.6,0.2
	c0.2,0.2,0.2,0.3,0.2,0.6V36c0,0.7,0.1,1.1,0.3,1.4c0.2,0.3,0.5,0.4,0.9,0.4c0.4,0,0.7-0.2,1.1-0.5c0.3-0.3,0.5-0.7,0.5-1v-3.6
	c0-0.2,0.1-0.4,0.2-0.6c0.2-0.2,0.3-0.2,0.6-0.2h0.3c0.2,0,0.4,0.1,0.5,0.2c0.2,0.2,0.2,0.3,0.2,0.6v5.7c0,0.2-0.1,0.4-0.2,0.6
	c-0.1,0.2-0.3,0.2-0.5,0.2h-0.2c-0.2,0-0.4-0.1-0.6-0.2c-0.1-0.2-0.2-0.4-0.2-0.6l0-0.1c0,0,0,0,0,0c0,0,0,0,0,0
	C193.4,38.8,192.6,39.1,191.8,39.1z M198.1,33.4c-0.2,0-0.3-0.1-0.5-0.2c-0.1-0.1-0.2-0.3-0.2-0.5s0.1-0.3,0.2-0.5s0.3-0.2,0.5-0.2
	h0.7c0.1,0,0.1,0,0.1-0.1v-1.7c0-0.2,0.1-0.4,0.2-0.6c0.2-0.2,0.3-0.2,0.6-0.2h0.3c0.2,0,0.4,0.1,0.6,0.2c0.2,0.2,0.2,0.3,0.2,0.6
	v1.7c0,0.1,0,0.1,0.1,0.1h1.6c0.2,0,0.3,0.1,0.5,0.2c0.1,0.1,0.2,0.3,0.2,0.5s-0.1,0.4-0.2,0.5c-0.1,0.1-0.3,0.2-0.5,0.2h-1.6
	c-0.1,0-0.1,0-0.1,0.1v2.8c0,0.6,0.1,1,0.2,1.2s0.4,0.3,0.8,0.3c0.2,0,0.4,0,0.5,0c0.2,0,0.4,0,0.5,0.1s0.2,0.2,0.2,0.4
	c0,0.2-0.1,0.4-0.2,0.6c-0.1,0.2-0.3,0.2-0.5,0.3c-0.4,0-0.7,0.1-0.9,0.1c-0.9,0-1.5-0.2-1.9-0.6c-0.4-0.4-0.5-1.1-0.5-2.1v-3
	c0-0.1,0-0.1-0.1-0.1H198.1z M207.9,32.9c-0.5,0-0.8,0.1-1.1,0.4c-0.3,0.3-0.4,0.7-0.5,1.3c0,0.1,0,0.1,0.1,0.1h2.7
	c0.1,0,0.1,0,0.1-0.1C209.3,33.4,208.8,32.9,207.9,32.9z M208.3,39.1c-1.2,0-2.2-0.3-2.8-1c-0.7-0.6-1-1.6-1-2.8
	c0-1.2,0.3-2.2,0.9-2.8c0.6-0.6,1.4-1,2.5-1c2.1,0,3.1,1.2,3.2,3.5c0,0.2-0.1,0.4-0.2,0.6s-0.4,0.2-0.6,0.2h-3.8
	c-0.1,0-0.1,0-0.1,0.1c0.1,0.6,0.3,1.1,0.6,1.4c0.4,0.3,0.9,0.4,1.5,0.4c0.4,0,0.9-0.1,1.4-0.2c0.2,0,0.3,0,0.5,0.1
	c0.1,0.1,0.2,0.2,0.2,0.4c0,0.2-0.1,0.4-0.2,0.6c-0.1,0.2-0.3,0.3-0.5,0.3C209.4,39.1,208.8,39.1,208.3,39.1z M214.9,39.1
	c-0.8,0-1.4-0.2-1.8-0.7c-0.4-0.5-0.6-1.2-0.6-2.3v-3.6c0-0.2,0.1-0.4,0.2-0.6c0.2-0.2,0.3-0.2,0.6-0.2h0.2c0.2,0,0.4,0.1,0.6,0.2
	c0.2,0.2,0.2,0.3,0.2,0.6V36c0,0.7,0.1,1.1,0.3,1.4c0.2,0.3,0.5,0.4,0.9,0.4c0.4,0,0.7-0.2,1.1-0.5c0.3-0.3,0.5-0.7,0.5-1v-3.6
	c0-0.2,0.1-0.4,0.2-0.6c0.2-0.2,0.3-0.2,0.6-0.2h0.3c0.2,0,0.4,0.1,0.5,0.2c0.2,0.2,0.2,0.3,0.2,0.6v5.7c0,0.2-0.1,0.4-0.2,0.6
	c-0.1,0.2-0.3,0.2-0.5,0.2H218c-0.2,0-0.4-0.1-0.6-0.2c-0.1-0.2-0.2-0.4-0.2-0.6l0-0.1c0,0,0,0,0,0s0,0,0,0
	C216.5,38.8,215.7,39.1,214.9,39.1z M227.9,33c-1.1,0-1.6,0.8-1.6,2.4c0,0.8,0.1,1.4,0.4,1.8c0.3,0.4,0.7,0.6,1.2,0.6
	c0.4,0,0.8-0.1,1.1-0.4s0.5-0.6,0.5-1v-1.9c0-0.4-0.2-0.7-0.5-1S228.3,33,227.9,33z M227.3,39.1c-0.8,0-1.5-0.3-2.1-1
	c-0.6-0.7-0.8-1.6-0.8-2.8c0-1.2,0.3-2.1,0.8-2.8c0.5-0.7,1.2-1,2.1-1c0.8,0,1.5,0.3,2.1,0.9c0,0,0,0,0,0c0,0,0,0,0,0v-3.1
	c0-0.2,0.1-0.4,0.2-0.6c0.2-0.2,0.3-0.2,0.6-0.2h0.3c0.2,0,0.4,0.1,0.6,0.2c0.2,0.2,0.2,0.3,0.2,0.6v8.9c0,0.2-0.1,0.4-0.2,0.6
	c-0.2,0.2-0.3,0.2-0.6,0.2h-0.2c-0.2,0-0.4-0.1-0.6-0.2c-0.1-0.2-0.2-0.4-0.2-0.6l0-0.1c0,0,0,0,0,0s0,0,0,0
	C228.9,38.8,228.2,39.1,227.3,39.1z M236.3,32.9c-0.5,0-0.8,0.1-1.1,0.4c-0.3,0.3-0.4,0.7-0.5,1.3c0,0.1,0,0.1,0.1,0.1h2.7
	c0.1,0,0.1,0,0.1-0.1C237.7,33.4,237.2,32.9,236.3,32.9z M236.7,39.1c-1.2,0-2.2-0.3-2.8-1c-0.7-0.6-1-1.6-1-2.8
	c0-1.2,0.3-2.2,0.9-2.8c0.6-0.6,1.4-1,2.5-1c2.1,0,3.1,1.2,3.2,3.5c0,0.2-0.1,0.4-0.2,0.6s-0.4,0.2-0.6,0.2h-3.8
	c-0.1,0-0.1,0-0.1,0.1c0.1,0.6,0.3,1.1,0.6,1.4c0.4,0.3,0.9,0.4,1.5,0.4c0.4,0,0.9-0.1,1.4-0.2c0.2,0,0.3,0,0.5,0.1
	c0.1,0.1,0.2,0.2,0.2,0.4c0,0.2-0.1,0.4-0.2,0.6c-0.1,0.2-0.3,0.3-0.5,0.3C237.8,39.1,237.2,39.1,236.7,39.1z M246.2,39
	c-0.2,0-0.4-0.1-0.6-0.2c-0.2-0.2-0.2-0.3-0.2-0.6v-8.9c0-0.2,0.1-0.4,0.2-0.6c0.2-0.2,0.3-0.2,0.6-0.2h0.4c0.2,0,0.4,0.1,0.6,0.2
	c0.2,0.2,0.2,0.3,0.2,0.6v8.9c0,0.2-0.1,0.4-0.2,0.6c-0.2,0.2-0.3,0.2-0.6,0.2H246.2z M253.1,35.5c-1.3,0-2,0.4-2,1.2
	c0,0.3,0.1,0.5,0.3,0.7c0.2,0.2,0.4,0.3,0.7,0.3c0.5,0,1-0.2,1.3-0.5c0.3-0.3,0.5-0.8,0.5-1.4v-0.3c0-0.1,0-0.1-0.1-0.1H253.1z
	 M251.5,39.1c-0.6,0-1.2-0.2-1.6-0.6c-0.4-0.4-0.6-1-0.6-1.6c0-0.8,0.3-1.4,0.9-1.9c0.6-0.4,1.6-0.7,2.9-0.7h0.6
	c0.1,0,0.1,0,0.1-0.1v-0.1c0-0.4-0.1-0.7-0.3-0.9c-0.2-0.2-0.6-0.3-1.1-0.3c-0.5,0-1.2,0.1-2,0.3c-0.2,0-0.3,0-0.5-0.1
	c-0.1-0.1-0.2-0.3-0.2-0.4c0-0.2,0.1-0.4,0.2-0.6c0.1-0.2,0.3-0.3,0.5-0.3c0.7-0.2,1.4-0.2,2-0.2c1.2,0,2,0.2,2.5,0.6
	c0.5,0.4,0.7,1.2,0.7,2.3v3.7c0,0.2-0.1,0.4-0.2,0.6c-0.2,0.2-0.3,0.2-0.5,0.2h-0.2c-0.2,0-0.4-0.1-0.6-0.2
	c-0.2-0.2-0.2-0.4-0.3-0.6V38c0,0,0,0,0,0c0,0,0,0,0,0C253.3,38.8,252.5,39.1,251.5,39.1z M262.9,38.2l-1.9-5.8
	c-0.1-0.2,0-0.4,0.1-0.5c0.1-0.2,0.3-0.2,0.5-0.2h0.4c0.2,0,0.4,0.1,0.6,0.2c0.2,0.1,0.3,0.3,0.4,0.5l1.4,5.4c0,0,0,0,0,0
	c0,0,0,0,0,0l1.4-5.4c0.1-0.2,0.2-0.4,0.4-0.5c0.2-0.1,0.4-0.2,0.6-0.2h0.4c0.2,0,0.4,0.1,0.5,0.2c0.1,0.2,0.1,0.3,0.1,0.5l-1.9,5.8
	c-0.1,0.2-0.2,0.4-0.4,0.5c-0.2,0.1-0.4,0.2-0.6,0.2H264c-0.2,0-0.4-0.1-0.6-0.2C263.1,38.6,263,38.5,262.9,38.2z M273.2,33.5
	c-0.3-0.4-0.7-0.6-1.2-0.6c-0.6,0-1,0.2-1.2,0.6c-0.3,0.4-0.4,1-0.4,1.8s0.1,1.5,0.4,1.8c0.3,0.4,0.7,0.6,1.2,0.6
	c0.6,0,1-0.2,1.2-0.6c0.3-0.4,0.4-1,0.4-1.8S273.4,33.9,273.2,33.5z M274.5,38.2c-0.6,0.7-1.5,1-2.6,1c-1.1,0-2-0.3-2.6-1
	c-0.6-0.7-0.9-1.6-0.9-2.8s0.3-2.1,0.9-2.8c0.6-0.7,1.5-1,2.6-1c1.1,0,2,0.3,2.6,1c0.6,0.7,0.9,1.6,0.9,2.8S275.2,37.5,274.5,38.2z
	 M279.4,36.1c-1-0.2-1.7-0.5-2.1-0.9c-0.4-0.4-0.6-0.9-0.6-1.5c0-0.7,0.2-1.2,0.7-1.6c0.5-0.4,1.2-0.6,2.2-0.6
	c0.6,0,1.2,0.1,1.8,0.2c0.2,0,0.4,0.1,0.5,0.3c0.1,0.2,0.2,0.3,0.2,0.6c0,0.2-0.1,0.3-0.2,0.4c-0.1,0.1-0.3,0.1-0.5,0.1
	c-0.5-0.1-1.1-0.2-1.7-0.2c-0.8,0-1.3,0.2-1.3,0.7c0,0.2,0.1,0.4,0.2,0.6c0.2,0.1,0.4,0.3,0.8,0.4c1.1,0.2,1.8,0.5,2.2,0.9
	c0.4,0.4,0.6,0.9,0.6,1.6c0,0.7-0.3,1.2-0.8,1.6s-1.2,0.6-2.2,0.6c-0.6,0-1.3-0.1-1.9-0.2c-0.2,0-0.4-0.2-0.5-0.3
	c-0.1-0.2-0.2-0.4-0.2-0.6c0-0.2,0.1-0.3,0.2-0.4c0.1-0.1,0.3-0.1,0.5-0.1c0.6,0.2,1.2,0.3,1.7,0.3c0.9,0,1.3-0.3,1.3-0.8
	c0-0.2-0.1-0.4-0.3-0.6C280.1,36.3,279.8,36.2,279.4,36.1z M284.2,33.4c-0.2,0-0.3-0.1-0.5-0.2c-0.1-0.1-0.2-0.3-0.2-0.5
	s0.1-0.3,0.2-0.5c0.1-0.1,0.3-0.2,0.5-0.2h0.7c0.1,0,0.1,0,0.1-0.1v-1.7c0-0.2,0.1-0.4,0.2-0.6c0.2-0.2,0.3-0.2,0.6-0.2h0.3
	c0.2,0,0.4,0.1,0.6,0.2s0.2,0.3,0.2,0.6v1.7c0,0.1,0,0.1,0.1,0.1h1.6c0.2,0,0.3,0.1,0.5,0.2c0.1,0.1,0.2,0.3,0.2,0.5
	s-0.1,0.4-0.2,0.5c-0.1,0.1-0.3,0.2-0.5,0.2H287c-0.1,0-0.1,0-0.1,0.1v2.8c0,0.6,0.1,1,0.2,1.2c0.1,0.2,0.4,0.3,0.8,0.3
	c0.2,0,0.4,0,0.5,0c0.2,0,0.4,0,0.5,0.1c0.1,0.1,0.2,0.2,0.2,0.4c0,0.2-0.1,0.4-0.2,0.6c-0.1,0.2-0.3,0.2-0.5,0.3
	c-0.4,0-0.7,0.1-0.9,0.1c-0.9,0-1.5-0.2-1.9-0.6c-0.4-0.4-0.5-1.1-0.5-2.1v-3c0-0.1,0-0.1-0.1-0.1H284.2z M292,39
	c-0.2,0-0.4-0.1-0.6-0.2c-0.2-0.2-0.2-0.3-0.2-0.6v-5.7c0-0.2,0.1-0.4,0.2-0.6c0.2-0.2,0.3-0.2,0.6-0.2h0.3c0.2,0,0.4,0.1,0.6,0.2
	c0.2,0.2,0.2,0.3,0.2,0.6v0.6c0,0,0,0,0,0c0,0,0,0,0,0c0.3-0.4,0.6-0.7,1.1-0.9c0.4-0.2,0.9-0.4,1.4-0.4c0.2,0,0.4,0,0.5,0.2
	c0.1,0.1,0.2,0.3,0.2,0.5s-0.1,0.4-0.2,0.5c-0.1,0.1-0.3,0.2-0.5,0.2c-1.7,0.1-2.5,1-2.5,2.5v2.5c0,0.2-0.1,0.4-0.2,0.6
	c-0.2,0.2-0.3,0.2-0.6,0.2H292z M301,35.5c-1.3,0-2,0.4-2,1.2c0,0.3,0.1,0.5,0.3,0.7c0.2,0.2,0.4,0.3,0.7,0.3c0.5,0,1-0.2,1.3-0.5
	c0.3-0.3,0.5-0.8,0.5-1.4v-0.3c0-0.1,0-0.1-0.1-0.1H301z M299.4,39.1c-0.6,0-1.2-0.2-1.6-0.6c-0.4-0.4-0.6-1-0.6-1.6
	c0-0.8,0.3-1.4,0.9-1.9c0.6-0.4,1.6-0.7,2.9-0.7h0.6c0.1,0,0.1,0,0.1-0.1v-0.1c0-0.4-0.1-0.7-0.3-0.9c-0.2-0.2-0.6-0.3-1.1-0.3
	c-0.5,0-1.2,0.1-2,0.3c-0.2,0-0.3,0-0.5-0.1c-0.1-0.1-0.2-0.3-0.2-0.4c0-0.2,0.1-0.4,0.2-0.6c0.1-0.2,0.3-0.3,0.5-0.3
	c0.7-0.2,1.4-0.2,2-0.2c1.2,0,2,0.2,2.5,0.6c0.5,0.4,0.7,1.2,0.7,2.3v3.7c0,0.2-0.1,0.4-0.2,0.6c-0.1,0.2-0.3,0.2-0.5,0.2h-0.2
	c-0.2,0-0.4-0.1-0.6-0.2c-0.2-0.2-0.2-0.4-0.3-0.6V38c0,0,0,0,0,0c0,0,0,0,0,0C301.2,38.8,300.4,39.1,299.4,39.1z M311.9,36.1
	c-1-0.2-1.7-0.5-2.1-0.9c-0.4-0.4-0.6-0.9-0.6-1.5c0-0.7,0.2-1.2,0.7-1.6c0.5-0.4,1.2-0.6,2.2-0.6c0.6,0,1.2,0.1,1.8,0.2
	c0.2,0,0.4,0.1,0.5,0.3c0.1,0.2,0.2,0.3,0.2,0.6c0,0.2-0.1,0.3-0.2,0.4c-0.1,0.1-0.3,0.1-0.5,0.1c-0.5-0.1-1.1-0.2-1.7-0.2
	c-0.8,0-1.3,0.2-1.3,0.7c0,0.2,0.1,0.4,0.2,0.6c0.2,0.1,0.4,0.3,0.8,0.4c1.1,0.2,1.8,0.5,2.2,0.9c0.4,0.4,0.6,0.9,0.6,1.6
	c0,0.7-0.3,1.2-0.8,1.6c-0.5,0.4-1.2,0.6-2.2,0.6c-0.6,0-1.3-0.1-1.9-0.2c-0.2,0-0.4-0.2-0.5-0.3c-0.1-0.2-0.2-0.4-0.2-0.6
	c0-0.2,0.1-0.3,0.2-0.4c0.1-0.1,0.3-0.1,0.5-0.1c0.6,0.2,1.2,0.3,1.7,0.3c0.9,0,1.3-0.3,1.3-0.8c0-0.2-0.1-0.4-0.3-0.6
	C312.6,36.3,312.3,36.2,311.9,36.1z M317.6,39c-0.2,0-0.4-0.1-0.6-0.2c-0.2-0.2-0.2-0.3-0.2-0.6v-0.8c0-0.2,0.1-0.4,0.2-0.6
	c0.2-0.2,0.3-0.2,0.6-0.2h0.6c0.2,0,0.4,0.1,0.6,0.2c0.2,0.2,0.2,0.3,0.2,0.6v0.8c0,0.2-0.1,0.4-0.2,0.6c-0.2,0.2-0.3,0.2-0.6,0.2
	H317.6z M322,39c-0.2,0-0.4-0.1-0.6-0.2c-0.2-0.2-0.2-0.3-0.2-0.6v-0.8c0-0.2,0.1-0.4,0.2-0.6c0.2-0.2,0.3-0.2,0.6-0.2h0.6
	c0.2,0,0.4,0.1,0.6,0.2c0.2,0.2,0.2,0.3,0.2,0.6v0.8c0,0.2-0.1,0.4-0.2,0.6c-0.2,0.2-0.3,0.2-0.6,0.2H322z M326.3,39
	c-0.2,0-0.4-0.1-0.6-0.2c-0.2-0.2-0.2-0.3-0.2-0.6v-0.8c0-0.2,0.1-0.4,0.2-0.6c0.2-0.2,0.3-0.2,0.6-0.2h0.6c0.2,0,0.4,0.1,0.6,0.2
	c0.2,0.2,0.2,0.3,0.2,0.6v0.8c0,0.2-0.1,0.4-0.2,0.6c-0.2,0.2-0.3,0.2-0.6,0.2H326.3z"/>
<path class="st5" d="M322,0c-7.7,0-14,6.3-14,14s6.3,14,14,14s14-6.3,14-14S329.7,0,322,0z M321,7.3c0-0.1,0.1-0.3,0.3-0.3h1.5
	c0.1,0,0.3,0.1,0.3,0.3v8.5c0,0.1-0.1,0.3-0.3,0.3h-1.5c-0.1,0-0.3-0.1-0.3-0.3V7.3z M322,21c-0.4,0-0.8-0.2-1-0.4
	c-0.3-0.3-0.4-0.7-0.4-1.1s0.2-0.8,0.4-1.1c0.3-0.3,0.6-0.4,1-0.4c0.4,0,0.8,0.2,1,0.4c0.3,0.3,0.4,0.7,0.4,1.1s-0.2,0.8-0.4,1.1
	C322.8,20.8,322.4,21,322,21z"/>
</svg>
