<?xml version="1.0" encoding="utf-8"?>
<!-- Generator: Adobe Illustrator 23.1.0, SVG Export Plug-In . SVG Version: 6.00 Build 0)  -->
<svg version="1.1" id="Capa_1" xmlns="http://www.w3.org/2000/svg" xmlns:xlink="http://www.w3.org/1999/xlink" x="0px" y="0px"
	 viewBox="0 0 336 40" style="enable-background:new 0 0 336 40;" xml:space="preserve">
<style type="text/css">
	.st0{fill:#FFFFFF;}
	.st1{fill:#FFFFFF;filter:url(#Adobe_OpacityMaskFilter);}
	.st2{mask:url(#mask0_1_);}
	.st3{fill:#8EFFDD;}
	.st4{fill:#876969;}
</style>
<path class="st0" d="M20,0h296c11,0,20,9,20,20l0,0c0,11-9,20-20,20H20C9,40,0,31,0,20l0,0C0,9,9,0,20,0z"/>
<defs>
	<filter id="Adobe_OpacityMaskFilter" filterUnits="userSpaceOnUse" x="0" y="-16" width="85" height="56">
		<feColorMatrix  type="matrix" values="1 0 0 0 0  0 1 0 0 0  0 0 1 0 0  0 0 0 1 0"/>
	</filter>
</defs>
<mask maskUnits="userSpaceOnUse" x="0" y="-16" width="85" height="56" id="mask0_1_">
	<path class="st1" d="M20,0h296c11,0,20,9,20,20l0,0c0,11-9,20-20,20H20C9,40,0,31,0,20l0,0C0,9,9,0,20,0z"/>
</mask>
<g class="st2">
	<rect y="-16" class="st3" width="85" height="56"/>
</g>
<path class="st4" d="M17,15c-0.8,0-1.5,0.2-1.9,0.7c-0.5,0.5-0.7,1.1-0.7,2c0,0.9,0.2,1.7,0.7,2.2c0.5,0.5,1.1,0.7,1.9,0.7
	c0.8,0,1.4-0.3,1.9-0.8c0.5-0.5,0.7-1.2,0.7-2.1c0-0.8-0.2-1.5-0.7-1.9C18.4,15.2,17.8,15,17,15z M16.5,22.4c-1.5,0-2.6-0.4-3.4-1.2
	c-0.8-0.8-1.2-2-1.2-3.5c0-1.5,0.5-2.6,1.4-3.5c0.9-0.9,2.2-1.3,3.8-1.3c1.7,0,3,0.5,3.8,1.5c0.9,1,1.3,2.5,1.3,4.6
	c0,2.8-0.5,4.9-1.5,6.2c-1,1.3-2.5,2-4.5,2c-0.6,0-1.3-0.1-2-0.2c-0.3-0.1-0.6-0.2-0.8-0.4c-0.2-0.3-0.3-0.5-0.3-0.9
	c0-0.3,0.1-0.5,0.3-0.6c0.2-0.2,0.5-0.2,0.7-0.2c0.7,0.1,1.3,0.2,1.9,0.2c1,0,1.8-0.3,2.4-0.9c0.6-0.6,0.9-1.5,1-2.7v0l0,0
	C18.7,22.1,17.7,22.4,16.5,22.4z M24.5,27.8c-0.3,0-0.4-0.1-0.6-0.3c-0.1-0.2-0.1-0.4,0-0.7l5.7-12.7c0.1-0.3,0.3-0.5,0.6-0.7
	c0.3-0.2,0.6-0.3,0.9-0.3h0.2c0.3,0,0.5,0.1,0.6,0.3c0.1,0.2,0.2,0.4,0,0.7l-5.7,12.7c-0.1,0.3-0.3,0.5-0.6,0.7
	c-0.3,0.2-0.6,0.3-0.9,0.3H24.5z M38.9,19.6c-0.8,0-1.4,0.2-1.9,0.7c-0.5,0.5-0.7,1.2-0.7,2c0,0.9,0.2,1.6,0.7,2.1
	c0.5,0.5,1.1,0.8,1.9,0.8c0.8,0,1.4-0.2,1.9-0.7c0.5-0.5,0.7-1.2,0.7-2.1c0-0.8-0.2-1.5-0.7-2C40.3,19.8,39.7,19.6,38.9,19.6z
	 M38.9,27.2c-3.5,0-5.2-2.1-5.2-6.3c0-2.7,0.5-4.7,1.6-6c1.1-1.3,2.5-2,4.5-2c0.6,0,1.2,0.1,1.8,0.2c0.3,0.1,0.6,0.2,0.7,0.5
	c0.2,0.3,0.3,0.5,0.3,0.9c0,0.3-0.1,0.5-0.3,0.6c-0.2,0.2-0.4,0.2-0.7,0.1C41,15,40.5,15,39.8,15c-0.9,0-1.7,0.3-2.3,0.9
	c-0.6,0.6-1,1.5-1.1,2.7v0l0,0c0.7-0.6,1.7-1,3-1c1.5,0,2.6,0.4,3.4,1.2c0.8,0.8,1.2,1.9,1.2,3.3c0,1.5-0.5,2.8-1.4,3.6
	C41.8,26.8,40.5,27.2,38.9,27.2z M46.3,27.8c-0.3,0-0.4-0.1-0.6-0.3c-0.1-0.2-0.1-0.4,0-0.7l5.7-12.7c0.1-0.3,0.3-0.5,0.6-0.7
	c0.3-0.2,0.6-0.3,0.9-0.3h0.2c0.3,0,0.5,0.1,0.6,0.3c0.1,0.2,0.2,0.4,0,0.7l-5.7,12.7c-0.1,0.3-0.3,0.5-0.6,0.7
	c-0.3,0.2-0.6,0.3-0.9,0.3H46.3z M65.2,17c0,1.2-0.4,2.3-1.1,3.4c-0.7,1.1-2.2,2.5-4.4,4.4c0,0,0,0,0,0.1s0,0,0,0h4.5
	c0.3,0,0.5,0.1,0.8,0.3c0.2,0.2,0.3,0.5,0.3,0.7c0,0.3-0.1,0.5-0.3,0.8S64.4,27,64.1,27h-7c-0.3,0-0.5-0.1-0.8-0.3
	c-0.2-0.2-0.3-0.5-0.3-0.8c0-0.7,0.3-1.3,0.8-1.7c2.2-1.7,3.7-3.1,4.4-4.1c0.7-1,1.1-1.9,1.1-2.8c0-1.4-0.8-2.1-2.3-2.1
	c-0.8,0-1.7,0.2-2.8,0.6c-0.2,0.1-0.5,0.1-0.7-0.1c-0.2-0.1-0.3-0.3-0.3-0.6v-0.3c0-0.3,0.1-0.6,0.3-0.9c0.2-0.3,0.4-0.5,0.7-0.6
	c1.1-0.3,2.1-0.5,3.2-0.5c1.5,0,2.6,0.4,3.4,1.1S65.2,15.7,65.2,17z M74.7,16.2c-0.4-0.8-1.1-1.1-2-1.1c-0.9,0-1.5,0.4-2,1.1
	c-0.4,0.8-0.6,2.1-0.6,3.9s0.2,3.2,0.6,3.9c0.4,0.8,1.1,1.1,2,1.1c0.9,0,1.5-0.4,2-1.1c0.4-0.8,0.6-2.1,0.6-3.9S75.2,16.9,74.7,16.2
	z M76.8,25.5c-0.9,1.1-2.2,1.7-4,1.7c-1.8,0-3.1-0.6-4-1.7c-0.9-1.1-1.3-2.9-1.3-5.4s0.4-4.3,1.3-5.4c0.9-1.1,2.2-1.7,4-1.7
	c1.8,0,3.1,0.6,4,1.7c0.9,1.1,1.3,2.9,1.3,5.4S77.6,24.4,76.8,25.5z"/>
<path class="st4" d="M97,20.5v2.9c0,0.1,0,0.1,0.1,0.1c0.3,0,0.6,0.1,0.9,0.1c0.8,0,1.3-0.1,1.7-0.4c0.4-0.3,0.5-0.7,0.5-1.3
	c0-0.5-0.2-0.9-0.6-1.1c-0.4-0.3-1.1-0.4-2.1-0.4h-0.5C97.1,20.4,97,20.4,97,20.5z M97,16.4v2.4c0,0.1,0,0.1,0.1,0.1h0.4
	c0.9,0,1.5-0.1,1.9-0.3c0.4-0.2,0.6-0.6,0.6-1.1c0-0.4-0.2-0.8-0.5-1c-0.3-0.2-0.8-0.3-1.6-0.3c-0.3,0-0.6,0-0.8,0.1
	C97.1,16.2,97,16.3,97,16.4z M95.9,25c-0.2,0-0.4-0.1-0.6-0.3c-0.1-0.2-0.2-0.4-0.2-0.6v-8.5c0-0.2,0.1-0.4,0.2-0.6
	c0.1-0.2,0.3-0.3,0.6-0.3c0.7-0.1,1.4-0.1,2-0.1c2.6,0,3.9,0.9,3.9,2.6c0,0.6-0.2,1.1-0.6,1.5c-0.4,0.4-0.9,0.7-1.5,0.8c0,0,0,0,0,0
	c0,0,0,0,0,0c0.8,0.1,1.4,0.4,1.8,0.9c0.4,0.4,0.7,1,0.7,1.7c0,1-0.3,1.8-1,2.3s-1.7,0.8-3.1,0.8C97.3,25.1,96.6,25.1,95.9,25z
	 M107.9,19.5c-0.3-0.4-0.7-0.6-1.2-0.6c-0.6,0-1,0.2-1.2,0.6c-0.3,0.4-0.4,1-0.4,1.8s0.1,1.5,0.4,1.8c0.3,0.4,0.7,0.6,1.2,0.6
	c0.6,0,1-0.2,1.2-0.6c0.3-0.4,0.4-1,0.4-1.8S108.2,19.9,107.9,19.5z M109.3,24.2c-0.6,0.7-1.5,1-2.6,1c-1.1,0-2-0.3-2.6-1
	c-0.6-0.7-0.9-1.6-0.9-2.8s0.3-2.1,0.9-2.8c0.6-0.7,1.5-1,2.6-1c1.1,0,2,0.3,2.6,1c0.6,0.7,0.9,1.6,0.9,2.8S109.9,23.5,109.3,24.2z
	 M112.5,25c-0.2,0-0.4-0.1-0.6-0.2c-0.2-0.2-0.2-0.3-0.2-0.6v-5.7c0-0.2,0.1-0.4,0.2-0.6c0.2-0.2,0.3-0.2,0.6-0.2h0.2
	c0.2,0,0.4,0.1,0.6,0.2c0.2,0.1,0.2,0.3,0.3,0.6v0.1c0,0,0,0,0,0c0,0,0,0,0,0c0.6-0.7,1.4-1,2.2-1s1.5,0.2,1.8,0.7
	c0.4,0.5,0.6,1.3,0.6,2.4v3.5c0,0.2-0.1,0.4-0.2,0.6c-0.2,0.2-0.3,0.2-0.6,0.2h-0.2c-0.2,0-0.4-0.1-0.6-0.2
	c-0.1-0.2-0.2-0.3-0.2-0.6v-3.4c0-0.7-0.1-1.2-0.3-1.4c-0.2-0.3-0.5-0.4-1-0.4c-0.4,0-0.7,0.2-1.1,0.5c-0.3,0.3-0.5,0.7-0.5,1.1v3.6
	c0,0.2-0.1,0.4-0.2,0.6c-0.2,0.2-0.3,0.2-0.6,0.2H112.5z M127,19c-1.1,0-1.6,0.8-1.6,2.4c0,0.8,0.1,1.4,0.4,1.8
	c0.3,0.4,0.7,0.6,1.2,0.6c0.4,0,0.8-0.1,1.1-0.4s0.5-0.6,0.5-1v-1.9c0-0.4-0.2-0.7-0.5-1S127.5,19,127,19z M126.5,25.1
	c-0.8,0-1.5-0.3-2.1-1c-0.6-0.7-0.8-1.6-0.8-2.8c0-1.2,0.3-2.1,0.8-2.8c0.5-0.7,1.2-1,2.1-1c0.8,0,1.5,0.3,2.1,0.9c0,0,0,0,0,0
	c0,0,0,0,0,0v-3.1c0-0.2,0.1-0.4,0.2-0.6c0.2-0.2,0.3-0.2,0.6-0.2h0.3c0.2,0,0.4,0.1,0.6,0.2c0.2,0.2,0.2,0.3,0.2,0.6v8.9
	c0,0.2-0.1,0.4-0.2,0.6c-0.2,0.2-0.3,0.2-0.6,0.2h-0.2c-0.2,0-0.4-0.1-0.6-0.2c-0.1-0.2-0.2-0.4-0.2-0.6l0-0.1c0,0,0,0,0,0s0,0,0,0
	C128.1,24.8,127.3,25.1,126.5,25.1z M133.7,25c-0.2,0-0.4-0.1-0.6-0.2c-0.2-0.2-0.2-0.3-0.2-0.6v-5.7c0-0.2,0.1-0.4,0.2-0.6
	c0.2-0.2,0.3-0.2,0.6-0.2h0.4c0.2,0,0.4,0.1,0.6,0.2c0.2,0.2,0.2,0.3,0.2,0.6v5.7c0,0.2-0.1,0.4-0.2,0.6c-0.2,0.2-0.3,0.2-0.6,0.2
	H133.7z M133.7,16.2c-0.2,0-0.4-0.1-0.6-0.2c-0.2-0.2-0.2-0.3-0.2-0.6v-0.1c0-0.2,0.1-0.4,0.2-0.6c0.2-0.2,0.3-0.2,0.6-0.2h0.4
	c0.2,0,0.4,0.1,0.6,0.2c0.2,0.2,0.2,0.3,0.2,0.6v0.1c0,0.2-0.1,0.4-0.2,0.6s-0.3,0.2-0.6,0.2H133.7z M140.7,21.5c-1.3,0-2,0.4-2,1.2
	c0,0.3,0.1,0.5,0.3,0.7c0.2,0.2,0.4,0.3,0.7,0.3c0.5,0,1-0.2,1.3-0.5c0.3-0.3,0.5-0.8,0.5-1.4v-0.3c0-0.1,0-0.1-0.1-0.1H140.7z
	 M139.1,25.1c-0.6,0-1.2-0.2-1.6-0.6c-0.4-0.4-0.6-1-0.6-1.6c0-0.8,0.3-1.4,0.9-1.9c0.6-0.4,1.6-0.7,2.9-0.7h0.6
	c0.1,0,0.1,0,0.1-0.1v-0.1c0-0.4-0.1-0.7-0.3-0.9c-0.2-0.2-0.6-0.3-1.1-0.3c-0.5,0-1.2,0.1-2,0.3c-0.2,0-0.3,0-0.5-0.1
	c-0.1-0.1-0.2-0.3-0.2-0.4c0-0.2,0.1-0.4,0.2-0.6c0.1-0.2,0.3-0.3,0.5-0.3c0.7-0.2,1.4-0.2,2-0.2c1.2,0,2,0.2,2.5,0.6
	s0.7,1.2,0.7,2.3v3.7c0,0.2-0.1,0.4-0.2,0.6c-0.1,0.2-0.3,0.2-0.5,0.2h-0.2c-0.2,0-0.4-0.1-0.6-0.2c-0.2-0.2-0.2-0.4-0.3-0.6V24
	c0,0,0,0,0,0c0,0,0,0,0,0C140.9,24.8,140.1,25.1,139.1,25.1z M146.7,21.9c-0.2,0-0.4-0.1-0.6-0.2c-0.2-0.2-0.2-0.4-0.3-0.6l-0.2-5.5
	c0-0.2,0.1-0.4,0.2-0.6c0.1-0.2,0.3-0.2,0.5-0.2h0.8c0.2,0,0.4,0.1,0.5,0.2c0.1,0.2,0.2,0.3,0.2,0.6l-0.2,5.5c0,0.2-0.1,0.4-0.3,0.6
	c-0.2,0.1-0.3,0.2-0.6,0.2H146.7z M147,23c0.2,0,0.4,0.1,0.5,0.2c0.2,0.2,0.2,0.3,0.2,0.6v0.4c0,0.2-0.1,0.4-0.2,0.6
	c-0.1,0.2-0.3,0.2-0.5,0.2h-0.5c-0.2,0-0.4-0.1-0.6-0.2c-0.1-0.2-0.2-0.3-0.2-0.6v-0.4c0-0.2,0.1-0.4,0.2-0.6
	c0.2-0.2,0.3-0.2,0.6-0.2H147z M158,16.5l-1.2,4.4c0,0,0,0.1,0,0.1c0,0,0,0,0.1,0h2.3c0,0,0.1,0,0.1,0s0-0.1,0-0.1L158,16.5
	C158.1,16.5,158.1,16.5,158,16.5C158,16.5,158,16.5,158,16.5z M154.4,25c-0.2,0-0.4-0.1-0.5-0.2c-0.1-0.2-0.1-0.3-0.1-0.5l2.9-8.7
	c0.1-0.2,0.2-0.4,0.4-0.5c0.2-0.1,0.4-0.2,0.6-0.2h0.5c0.2,0,0.5,0.1,0.6,0.2c0.2,0.1,0.3,0.3,0.4,0.5l2.9,8.7
	c0.1,0.2,0,0.4-0.1,0.5c-0.1,0.2-0.3,0.2-0.5,0.2h-0.5c-0.2,0-0.4-0.1-0.6-0.2c-0.2-0.1-0.3-0.3-0.4-0.6l-0.4-1.6
	c0-0.1-0.1-0.1-0.2-0.1h-3.2c-0.1,0-0.1,0-0.2,0.1l-0.4,1.6c-0.1,0.2-0.2,0.4-0.4,0.6c-0.2,0.1-0.4,0.2-0.6,0.2H154.4z M166.4,19
	c-1.1,0-1.6,0.8-1.6,2.4c0,0.8,0.1,1.4,0.4,1.8c0.3,0.4,0.7,0.6,1.2,0.6c0.4,0,0.8-0.1,1.1-0.4c0.3-0.3,0.5-0.6,0.5-1v-1.9
	c0-0.4-0.2-0.7-0.5-1C167.2,19.1,166.8,19,166.4,19z M165.9,25.1c-0.8,0-1.5-0.3-2.1-1c-0.5-0.7-0.8-1.6-0.8-2.8
	c0-1.2,0.3-2.1,0.8-2.8c0.5-0.7,1.2-1,2.1-1c0.4,0,0.8,0.1,1.2,0.2c0.3,0.2,0.7,0.4,1,0.8c0,0,0,0,0,0c0,0,0,0,0,0v-0.1
	c0-0.2,0.1-0.4,0.3-0.6c0.2-0.2,0.4-0.2,0.6-0.2h0.2c0.2,0,0.4,0.1,0.6,0.2c0.2,0.2,0.2,0.3,0.2,0.6v8.8c0,0.2-0.1,0.4-0.2,0.6
	c-0.2,0.2-0.3,0.2-0.6,0.2h-0.3c-0.2,0-0.4-0.1-0.6-0.2c-0.2-0.2-0.2-0.3-0.2-0.6v-3c0,0,0,0,0,0c0,0,0,0,0,0
	C167.4,24.8,166.7,25.1,165.9,25.1z M174.1,25.1c-0.8,0-1.4-0.2-1.8-0.7c-0.4-0.5-0.6-1.2-0.6-2.3v-3.6c0-0.2,0.1-0.4,0.2-0.6
	c0.2-0.2,0.3-0.2,0.6-0.2h0.2c0.2,0,0.4,0.1,0.6,0.2c0.2,0.2,0.2,0.3,0.2,0.6V22c0,0.7,0.1,1.1,0.3,1.4c0.2,0.3,0.5,0.4,0.9,0.4
	c0.4,0,0.7-0.2,1.1-0.5c0.3-0.3,0.5-0.7,0.5-1v-3.6c0-0.2,0.1-0.4,0.2-0.6c0.2-0.2,0.3-0.2,0.6-0.2h0.3c0.2,0,0.4,0.1,0.5,0.2
	c0.2,0.2,0.2,0.3,0.2,0.6v5.7c0,0.2-0.1,0.4-0.2,0.6c-0.1,0.2-0.3,0.2-0.5,0.2h-0.2c-0.2,0-0.4-0.1-0.6-0.2
	c-0.1-0.2-0.2-0.4-0.2-0.6l0-0.1c0,0,0,0,0,0s0,0,0,0C175.7,24.8,174.9,25.1,174.1,25.1z M183,18.9c-0.5,0-0.8,0.1-1.1,0.4
	c-0.3,0.3-0.4,0.7-0.5,1.3c0,0.1,0,0.1,0.1,0.1h2.7c0.1,0,0.1,0,0.1-0.1C184.4,19.4,183.9,18.9,183,18.9z M183.4,25.1
	c-1.2,0-2.2-0.3-2.8-1c-0.7-0.6-1-1.6-1-2.8c0-1.2,0.3-2.2,0.9-2.8c0.6-0.6,1.4-1,2.5-1c2.1,0,3.1,1.2,3.2,3.5
	c0,0.2-0.1,0.4-0.2,0.6s-0.4,0.2-0.6,0.2h-3.8c-0.1,0-0.1,0-0.1,0.1c0.1,0.6,0.3,1.1,0.6,1.4c0.4,0.3,0.9,0.4,1.5,0.4
	c0.4,0,0.9-0.1,1.4-0.2c0.2,0,0.3,0,0.5,0.1c0.1,0.1,0.2,0.2,0.2,0.4c0,0.2-0.1,0.4-0.2,0.6c-0.1,0.2-0.3,0.3-0.5,0.3
	C184.5,25.1,184,25.1,183.4,25.1z M190.2,22.1c-1-0.2-1.7-0.5-2.1-0.9c-0.4-0.4-0.6-0.9-0.6-1.5c0-0.7,0.2-1.2,0.7-1.6
	c0.5-0.4,1.2-0.6,2.2-0.6c0.6,0,1.2,0.1,1.8,0.2c0.2,0,0.4,0.1,0.5,0.3c0.1,0.2,0.2,0.3,0.2,0.6c0,0.2-0.1,0.3-0.2,0.4
	c-0.1,0.1-0.3,0.1-0.5,0.1c-0.5-0.1-1.1-0.2-1.7-0.2c-0.8,0-1.3,0.2-1.3,0.7c0,0.2,0.1,0.4,0.2,0.6s0.4,0.3,0.8,0.4
	c1.1,0.2,1.8,0.5,2.2,0.9c0.4,0.4,0.6,0.9,0.6,1.6c0,0.7-0.3,1.2-0.8,1.6c-0.5,0.4-1.2,0.6-2.2,0.6c-0.6,0-1.3-0.1-1.9-0.2
	c-0.2,0-0.4-0.2-0.5-0.3c-0.1-0.2-0.2-0.4-0.2-0.6c0-0.2,0.1-0.3,0.2-0.4c0.1-0.1,0.3-0.1,0.5-0.1c0.6,0.2,1.2,0.3,1.7,0.3
	c0.8,0,1.3-0.3,1.3-0.8c0-0.2-0.1-0.4-0.3-0.6C190.9,22.3,190.7,22.2,190.2,22.1z M195,19.4c-0.2,0-0.3-0.1-0.5-0.2
	c-0.1-0.1-0.2-0.3-0.2-0.5s0.1-0.3,0.2-0.5c0.1-0.1,0.3-0.2,0.5-0.2h0.7c0.1,0,0.1,0,0.1-0.1v-1.7c0-0.2,0.1-0.4,0.2-0.6
	c0.2-0.2,0.3-0.2,0.6-0.2h0.3c0.2,0,0.4,0.1,0.6,0.2c0.2,0.2,0.2,0.3,0.2,0.6v1.7c0,0.1,0,0.1,0.1,0.1h1.6c0.2,0,0.3,0.1,0.5,0.2
	c0.1,0.1,0.2,0.3,0.2,0.5s-0.1,0.4-0.2,0.5c-0.1,0.1-0.3,0.2-0.5,0.2h-1.6c-0.1,0-0.1,0-0.1,0.1v2.8c0,0.6,0.1,1,0.2,1.2
	c0.1,0.2,0.4,0.3,0.8,0.3c0.2,0,0.4,0,0.5,0c0.2,0,0.4,0,0.5,0.1s0.2,0.2,0.2,0.4c0,0.2-0.1,0.4-0.2,0.6c-0.1,0.2-0.3,0.2-0.5,0.3
	c-0.4,0-0.7,0.1-0.9,0.1c-0.9,0-1.5-0.2-1.9-0.6c-0.4-0.4-0.5-1.1-0.5-2.1v-3c0-0.1,0-0.1-0.1-0.1H195z M204.4,22.1
	c-1-0.2-1.7-0.5-2.1-0.9c-0.4-0.4-0.6-0.9-0.6-1.5c0-0.7,0.2-1.2,0.7-1.6c0.5-0.4,1.2-0.6,2.2-0.6c0.6,0,1.2,0.1,1.8,0.2
	c0.2,0,0.4,0.1,0.5,0.3c0.1,0.2,0.2,0.3,0.2,0.6c0,0.2-0.1,0.3-0.2,0.4c-0.1,0.1-0.3,0.1-0.5,0.1c-0.5-0.1-1.1-0.2-1.7-0.2
	c-0.8,0-1.3,0.2-1.3,0.7c0,0.2,0.1,0.4,0.2,0.6s0.4,0.3,0.8,0.4c1.1,0.2,1.8,0.5,2.2,0.9c0.4,0.4,0.6,0.9,0.6,1.6
	c0,0.7-0.3,1.2-0.8,1.6c-0.5,0.4-1.2,0.6-2.2,0.6c-0.6,0-1.3-0.1-1.9-0.2c-0.2,0-0.4-0.2-0.5-0.3c-0.1-0.2-0.2-0.4-0.2-0.6
	c0-0.2,0.1-0.3,0.2-0.4c0.1-0.1,0.3-0.1,0.5-0.1c0.6,0.2,1.2,0.3,1.7,0.3c0.8,0,1.3-0.3,1.3-0.8c0-0.2-0.1-0.4-0.3-0.6
	C205.1,22.3,204.8,22.2,204.4,22.1z M215.6,22.1c-1-0.2-1.7-0.5-2.1-0.9c-0.4-0.4-0.6-0.9-0.6-1.5c0-0.7,0.2-1.2,0.7-1.6
	c0.5-0.4,1.2-0.6,2.2-0.6c0.6,0,1.2,0.1,1.8,0.2c0.2,0,0.4,0.1,0.5,0.3c0.1,0.2,0.2,0.3,0.2,0.6c0,0.2-0.1,0.3-0.2,0.4
	c-0.1,0.1-0.3,0.1-0.5,0.1c-0.5-0.1-1.1-0.2-1.7-0.2c-0.8,0-1.3,0.2-1.3,0.7c0,0.2,0.1,0.4,0.2,0.6c0.2,0.1,0.4,0.3,0.8,0.4
	c1.1,0.2,1.8,0.5,2.2,0.9c0.4,0.4,0.6,0.9,0.6,1.6c0,0.7-0.3,1.2-0.8,1.6s-1.2,0.6-2.2,0.6c-0.6,0-1.3-0.1-1.9-0.2
	c-0.2,0-0.4-0.2-0.5-0.3c-0.1-0.2-0.2-0.4-0.2-0.6c0-0.2,0.1-0.3,0.2-0.4c0.1-0.1,0.3-0.1,0.5-0.1c0.6,0.2,1.2,0.3,1.7,0.3
	c0.8,0,1.3-0.3,1.3-0.8c0-0.2-0.1-0.4-0.3-0.6C216.3,22.3,216,22.2,215.6,22.1z M224.6,19.5c-0.3-0.4-0.7-0.6-1.2-0.6
	c-0.6,0-1,0.2-1.2,0.6c-0.3,0.4-0.4,1-0.4,1.8s0.1,1.5,0.4,1.8c0.3,0.4,0.7,0.6,1.2,0.6c0.6,0,1-0.2,1.2-0.6c0.3-0.4,0.4-1,0.4-1.8
	S224.9,19.9,224.6,19.5z M226,24.2c-0.6,0.7-1.5,1-2.6,1s-2-0.3-2.6-1c-0.6-0.7-0.9-1.6-0.9-2.8s0.3-2.1,0.9-2.8
	c0.6-0.7,1.5-1,2.6-1s2,0.3,2.6,1c0.6,0.7,0.9,1.6,0.9,2.8S226.6,23.5,226,24.2z M224.4,14.3h0.7c0.2,0,0.3,0.1,0.3,0.2
	c0.1,0.1,0,0.3-0.1,0.4l-1.1,1.2c-0.3,0.4-0.8,0.6-1.3,0.6h-0.1c-0.2,0-0.3-0.1-0.4-0.2c-0.1-0.1-0.1-0.3,0-0.4l0.7-1.1
	C223.4,14.5,223.9,14.3,224.4,14.3z M229.2,25c-0.2,0-0.4-0.1-0.6-0.2c-0.2-0.2-0.2-0.3-0.2-0.6v-5.7c0-0.2,0.1-0.4,0.2-0.6
	c0.2-0.2,0.3-0.2,0.6-0.2h0.2c0.2,0,0.4,0.1,0.6,0.2c0.2,0.1,0.2,0.3,0.3,0.6v0.1c0,0,0,0,0,0c0,0,0,0,0,0c0.6-0.7,1.4-1,2.2-1
	c0.8,0,1.5,0.2,1.8,0.7c0.4,0.5,0.6,1.3,0.6,2.4v3.5c0,0.2-0.1,0.4-0.2,0.6c-0.2,0.2-0.3,0.2-0.6,0.2h-0.2c-0.2,0-0.4-0.1-0.6-0.2
	c-0.1-0.2-0.2-0.3-0.2-0.6v-3.4c0-0.7-0.1-1.2-0.3-1.4c-0.2-0.3-0.5-0.4-1-0.4c-0.4,0-0.7,0.2-1.1,0.5c-0.3,0.3-0.5,0.7-0.5,1.1v3.6
	c0,0.2-0.1,0.4-0.2,0.6c-0.2,0.2-0.3,0.2-0.6,0.2H229.2z M243.7,18.9c-0.5,0-0.8,0.1-1.1,0.4c-0.3,0.3-0.4,0.7-0.5,1.3
	c0,0.1,0,0.1,0.1,0.1h2.7c0.1,0,0.1,0,0.1-0.1C245,19.4,244.6,18.9,243.7,18.9z M244,25.1c-1.2,0-2.2-0.3-2.8-1
	c-0.7-0.6-1-1.6-1-2.8c0-1.2,0.3-2.2,0.9-2.8c0.6-0.6,1.4-1,2.5-1c2.1,0,3.1,1.2,3.2,3.5c0,0.2-0.1,0.4-0.2,0.6s-0.4,0.2-0.6,0.2
	h-3.8c-0.1,0-0.1,0-0.1,0.1c0.1,0.6,0.3,1.1,0.6,1.4c0.4,0.3,0.9,0.4,1.5,0.4c0.4,0,0.9-0.1,1.4-0.2c0.2,0,0.3,0,0.5,0.1
	c0.1,0.1,0.2,0.2,0.2,0.4c0,0.2-0.1,0.4-0.2,0.6c-0.1,0.2-0.3,0.3-0.5,0.3C245.1,25.1,244.6,25.1,244,25.1z M249.6,25
	c-0.2,0-0.4-0.1-0.6-0.2c-0.2-0.2-0.2-0.3-0.2-0.6v-8.9c0-0.2,0.1-0.4,0.2-0.6c0.2-0.2,0.3-0.2,0.6-0.2h0.4c0.2,0,0.4,0.1,0.6,0.2
	c0.2,0.2,0.2,0.3,0.2,0.6v8.9c0,0.2-0.1,0.4-0.2,0.6c-0.2,0.2-0.3,0.2-0.6,0.2H249.6z M255.6,22.1c-1-0.2-1.7-0.5-2.1-0.9
	c-0.4-0.4-0.6-0.9-0.6-1.5c0-0.7,0.2-1.2,0.7-1.6c0.5-0.4,1.2-0.6,2.2-0.6c0.6,0,1.2,0.1,1.8,0.2c0.2,0,0.4,0.1,0.5,0.3
	c0.1,0.2,0.2,0.3,0.2,0.6c0,0.2-0.1,0.3-0.2,0.4c-0.1,0.1-0.3,0.1-0.5,0.1c-0.5-0.1-1.1-0.2-1.7-0.2c-0.8,0-1.3,0.2-1.3,0.7
	c0,0.2,0.1,0.4,0.2,0.6s0.4,0.3,0.8,0.4c1.1,0.2,1.8,0.5,2.2,0.9c0.4,0.4,0.6,0.9,0.6,1.6c0,0.7-0.3,1.2-0.8,1.6s-1.2,0.6-2.2,0.6
	c-0.6,0-1.3-0.1-1.9-0.2c-0.2,0-0.4-0.2-0.5-0.3c-0.1-0.2-0.2-0.4-0.2-0.6c0-0.2,0.1-0.3,0.2-0.4c0.1-0.1,0.3-0.1,0.5-0.1
	c0.6,0.2,1.2,0.3,1.7,0.3c0.8,0,1.3-0.3,1.3-0.8c0-0.2-0.1-0.4-0.3-0.6C256.3,22.3,256,22.2,255.6,22.1z M267.4,19
	c-1.1,0-1.6,0.8-1.6,2.4c0,0.8,0.1,1.4,0.4,1.8c0.3,0.4,0.7,0.6,1.2,0.6c0.4,0,0.8-0.1,1.1-0.4c0.3-0.3,0.5-0.6,0.5-1v-1.9
	c0-0.4-0.2-0.7-0.5-1C268.2,19.1,267.8,19,267.4,19z M266.8,25.1c-0.8,0-1.5-0.3-2.1-1c-0.6-0.7-0.8-1.6-0.8-2.8
	c0-1.2,0.3-2.1,0.8-2.8c0.5-0.7,1.2-1,2.1-1c0.8,0,1.5,0.3,2.1,0.9c0,0,0,0,0,0c0,0,0,0,0,0v-3.1c0-0.2,0.1-0.4,0.2-0.6
	c0.2-0.2,0.3-0.2,0.6-0.2h0.3c0.2,0,0.4,0.1,0.6,0.2c0.2,0.2,0.2,0.3,0.2,0.6v8.9c0,0.2-0.1,0.4-0.2,0.6c-0.2,0.2-0.3,0.2-0.6,0.2
	h-0.2c-0.2,0-0.4-0.1-0.6-0.2c-0.1-0.2-0.2-0.4-0.2-0.6l0-0.1c0,0,0,0,0,0c0,0,0,0,0,0C268.4,24.8,267.6,25.1,266.8,25.1z
	 M275.8,18.9c-0.5,0-0.8,0.1-1.1,0.4c-0.3,0.3-0.4,0.7-0.5,1.3c0,0.1,0,0.1,0.1,0.1h2.7c0.1,0,0.1,0,0.1-0.1
	C277.1,19.4,276.7,18.9,275.8,18.9z M276.1,25.1c-1.2,0-2.2-0.3-2.8-1c-0.7-0.6-1-1.6-1-2.8c0-1.2,0.3-2.2,0.9-2.8
	c0.6-0.6,1.4-1,2.5-1c2.1,0,3.1,1.2,3.2,3.5c0,0.2-0.1,0.4-0.2,0.6s-0.4,0.2-0.6,0.2h-3.8c-0.1,0-0.1,0-0.1,0.1
	c0.1,0.6,0.3,1.1,0.6,1.4c0.4,0.3,0.9,0.4,1.5,0.4c0.4,0,0.9-0.1,1.4-0.2c0.2,0,0.3,0,0.5,0.1c0.2,0.1,0.2,0.2,0.2,0.4
	c0,0.2-0.1,0.4-0.2,0.6c-0.1,0.2-0.3,0.3-0.5,0.3C277.2,25.1,276.7,25.1,276.1,25.1z M282.7,25.1c-0.8,0-1.4-0.2-1.8-0.7
	c-0.4-0.5-0.6-1.2-0.6-2.3v-3.6c0-0.2,0.1-0.4,0.2-0.6c0.2-0.2,0.3-0.2,0.6-0.2h0.2c0.2,0,0.4,0.1,0.6,0.2c0.2,0.2,0.2,0.3,0.2,0.6
	V22c0,0.7,0.1,1.1,0.3,1.4c0.2,0.3,0.5,0.4,0.9,0.4c0.4,0,0.7-0.2,1.1-0.5c0.3-0.3,0.5-0.7,0.5-1v-3.6c0-0.2,0.1-0.4,0.2-0.6
	c0.2-0.2,0.3-0.2,0.6-0.2h0.3c0.2,0,0.4,0.1,0.5,0.2c0.2,0.2,0.2,0.3,0.2,0.6v5.7c0,0.2-0.1,0.4-0.2,0.6c-0.1,0.2-0.3,0.2-0.5,0.2
	h-0.2c-0.2,0-0.4-0.1-0.6-0.2c-0.1-0.2-0.2-0.4-0.2-0.6l0-0.1c0,0,0,0,0,0c0,0,0,0,0,0C284.3,24.8,283.6,25.1,282.7,25.1z M289.5,25
	c-0.2,0-0.4-0.1-0.6-0.2c-0.2-0.2-0.2-0.3-0.2-0.6v-5.7c0-0.2,0.1-0.4,0.2-0.6c0.2-0.2,0.3-0.2,0.6-0.2h0.3c0.2,0,0.4,0.1,0.6,0.2
	c0.2,0.2,0.2,0.3,0.2,0.6v0.6c0,0,0,0,0,0c0,0,0,0,0,0c0.3-0.4,0.6-0.7,1.1-0.9c0.4-0.2,0.9-0.4,1.4-0.4c0.2,0,0.4,0,0.5,0.2
	c0.1,0.1,0.2,0.3,0.2,0.5s-0.1,0.4-0.2,0.5c-0.1,0.1-0.3,0.2-0.5,0.2c-1.7,0.1-2.5,1-2.5,2.5v2.5c0,0.2-0.1,0.4-0.2,0.6
	c-0.2,0.2-0.3,0.2-0.6,0.2H289.5z M298.2,18.9c-0.5,0-0.8,0.1-1.1,0.4c-0.3,0.3-0.4,0.7-0.5,1.3c0,0.1,0,0.1,0.1,0.1h2.7
	c0.1,0,0.1,0,0.1-0.1C299.6,19.4,299.1,18.9,298.2,18.9z M298.6,25.1c-1.2,0-2.2-0.3-2.8-1c-0.7-0.6-1-1.6-1-2.8
	c0-1.2,0.3-2.2,0.9-2.8c0.6-0.6,1.4-1,2.5-1c2.1,0,3.1,1.2,3.2,3.5c0,0.2-0.1,0.4-0.2,0.6c-0.2,0.1-0.4,0.2-0.6,0.2h-3.8
	c-0.1,0-0.1,0-0.1,0.1c0.1,0.6,0.3,1.1,0.6,1.4c0.4,0.3,0.9,0.4,1.5,0.4c0.4,0,0.9-0.1,1.4-0.2c0.2,0,0.3,0,0.5,0.1
	c0.1,0.1,0.2,0.2,0.2,0.4c0,0.2-0.1,0.4-0.2,0.6c-0.1,0.2-0.3,0.3-0.5,0.3C299.7,25.1,299.1,25.1,298.6,25.1z M305.4,22.1
	c-1-0.2-1.7-0.5-2.1-0.9c-0.4-0.4-0.6-0.9-0.6-1.5c0-0.7,0.2-1.2,0.7-1.6c0.5-0.4,1.2-0.6,2.2-0.6c0.6,0,1.2,0.1,1.8,0.2
	c0.2,0,0.4,0.1,0.5,0.3c0.1,0.2,0.2,0.3,0.2,0.6c0,0.2-0.1,0.3-0.2,0.4c-0.1,0.1-0.3,0.1-0.5,0.1c-0.5-0.1-1.1-0.2-1.7-0.2
	c-0.8,0-1.3,0.2-1.3,0.7c0,0.2,0.1,0.4,0.2,0.6c0.2,0.1,0.4,0.3,0.8,0.4c1.1,0.2,1.8,0.5,2.2,0.9c0.4,0.4,0.6,0.9,0.6,1.6
	c0,0.7-0.3,1.2-0.8,1.6s-1.2,0.6-2.2,0.6c-0.6,0-1.3-0.1-1.9-0.2c-0.2,0-0.4-0.2-0.5-0.3c-0.1-0.2-0.2-0.4-0.2-0.6
	c0-0.2,0.1-0.3,0.2-0.4c0.1-0.1,0.3-0.1,0.5-0.1c0.6,0.2,1.2,0.3,1.7,0.3c0.8,0,1.3-0.3,1.3-0.8c0-0.2-0.1-0.4-0.3-0.6
	C306.1,22.3,305.8,22.2,305.4,22.1z M315.2,25c-0.2,0-0.4-0.1-0.6-0.2c-0.2-0.2-0.2-0.3-0.2-0.6v-0.8c0-0.2,0.1-0.4,0.2-0.6
	c0.2-0.2,0.3-0.2,0.6-0.2h0.6c0.2,0,0.4,0.1,0.6,0.2s0.2,0.3,0.2,0.6v0.8c0,0.2-0.1,0.4-0.2,0.6c-0.2,0.2-0.3,0.2-0.6,0.2H315.2z
	 M319.6,25c-0.2,0-0.4-0.1-0.6-0.2c-0.2-0.2-0.2-0.3-0.2-0.6v-0.8c0-0.2,0.1-0.4,0.2-0.6c0.2-0.2,0.3-0.2,0.6-0.2h0.6
	c0.2,0,0.4,0.1,0.6,0.2s0.2,0.3,0.2,0.6v0.8c0,0.2-0.1,0.4-0.2,0.6c-0.2,0.2-0.3,0.2-0.6,0.2H319.6z M324,25c-0.2,0-0.4-0.1-0.6-0.2
	c-0.2-0.2-0.2-0.3-0.2-0.6v-0.8c0-0.2,0.1-0.4,0.2-0.6c0.2-0.2,0.3-0.2,0.6-0.2h0.6c0.2,0,0.4,0.1,0.6,0.2s0.2,0.3,0.2,0.6v0.8
	c0,0.2-0.1,0.4-0.2,0.6c-0.2,0.2-0.3,0.2-0.6,0.2H324z"/>
</svg>
