<?xml version="1.0" encoding="utf-8"?>
<!-- Generator: Adobe Illustrator 23.1.0, SVG Export Plug-In . SVG Version: 6.00 Build 0)  -->
<svg version="1.1" id="Capa_1" xmlns="http://www.w3.org/2000/svg" xmlns:xlink="http://www.w3.org/1999/xlink" x="0px" y="0px"
	 viewBox="0 0 336 40" style="enable-background:new 0 0 336 40;" xml:space="preserve">
<style type="text/css">
	.st0{fill:#FFFFFF;}
	.st1{fill:#FFFFFF;filter:url(#Adobe_OpacityMaskFilter);}
	.st2{mask:url(#mask0_1_);}
	.st3{fill:#8EFFDD;}
	.st4{fill:#876969;}
</style>
<path class="st0" d="M20,0h296c11,0,20,9,20,20l0,0c0,11-9,20-20,20H20C9,40,0,31,0,20l0,0C0,9,9,0,20,0z"/>
<defs>
	<filter id="Adobe_OpacityMaskFilter" filterUnits="userSpaceOnUse" x="0" y="-16" width="85" height="56">
		<feColorMatrix  type="matrix" values="1 0 0 0 0  0 1 0 0 0  0 0 1 0 0  0 0 0 1 0"/>
	</filter>
</defs>
<mask maskUnits="userSpaceOnUse" x="0" y="-16" width="85" height="56" id="mask0_1_">
	<path class="st1" d="M20,0h296c11,0,20,9,20,20l0,0c0,11-9,20-20,20H20C9,40,0,31,0,20l0,0C0,9,9,0,20,0z"/>
</mask>
<g class="st2">
	<rect y="-16" class="st3" width="85" height="56"/>
</g>
<path class="st4" d="M16.7,20.7c-1.6,0.5-2.4,1.3-2.4,2.4c0,0.7,0.3,1.2,0.8,1.6c0.5,0.4,1.2,0.6,2,0.6s1.5-0.2,2-0.6
	c0.5-0.4,0.7-0.9,0.7-1.6c0-0.6-0.2-1-0.6-1.4c-0.4-0.4-1.1-0.7-2.2-1C16.9,20.7,16.8,20.7,16.7,20.7z M17.1,14.9
	c-0.7,0-1.3,0.2-1.7,0.5c-0.4,0.3-0.6,0.8-0.6,1.3c0,0.9,0.7,1.6,2.2,2c0.1,0,0.2,0,0.3,0c1.4-0.5,2.2-1.1,2.2-2
	c0-0.5-0.2-1-0.6-1.3C18.4,15,17.8,14.9,17.1,14.9z M21,26.1c-0.9,0.7-2.2,1.1-3.9,1.1s-3-0.4-3.9-1.1c-0.9-0.7-1.4-1.7-1.4-2.9
	c0-0.7,0.2-1.3,0.7-1.9c0.5-0.6,1.1-1.1,2-1.5c0,0,0,0,0,0c0,0,0,0,0,0c-0.7-0.4-1.3-0.8-1.7-1.4c-0.4-0.6-0.6-1.2-0.6-1.9
	c0-1,0.4-1.9,1.3-2.5c0.9-0.6,2.1-1,3.6-1s2.7,0.3,3.6,1c0.9,0.6,1.3,1.5,1.3,2.5c0,1.3-0.8,2.3-2.4,3.1c0,0,0,0,0,0c0,0,0,0,0,0
	c1.9,0.7,2.8,1.9,2.8,3.7C22.4,24.4,21.9,25.4,21,26.1z M24.5,27.8c-0.3,0-0.4-0.1-0.6-0.3c-0.1-0.2-0.1-0.4,0-0.7l5.7-12.7
	c0.1-0.3,0.3-0.5,0.6-0.7c0.3-0.2,0.6-0.3,0.9-0.3h0.2c0.3,0,0.5,0.1,0.6,0.3c0.1,0.2,0.2,0.4,0,0.7l-5.7,12.7
	c-0.1,0.3-0.3,0.5-0.6,0.7c-0.3,0.2-0.6,0.3-0.9,0.3H24.5z M38.9,19.6c-0.8,0-1.4,0.2-1.9,0.7c-0.5,0.5-0.7,1.2-0.7,2
	c0,0.9,0.2,1.6,0.7,2.1c0.5,0.5,1.1,0.8,1.9,0.8c0.8,0,1.4-0.2,1.9-0.7c0.5-0.5,0.7-1.2,0.7-2.1c0-0.8-0.2-1.5-0.7-2
	C40.3,19.8,39.7,19.6,38.9,19.6z M38.9,27.2c-3.5,0-5.2-2.1-5.2-6.3c0-2.7,0.5-4.7,1.6-6c1.1-1.3,2.5-2,4.5-2c0.6,0,1.2,0.1,1.8,0.2
	c0.3,0.1,0.6,0.2,0.7,0.5c0.2,0.3,0.3,0.5,0.3,0.9c0,0.3-0.1,0.5-0.3,0.6c-0.2,0.2-0.4,0.2-0.7,0.1C41,15,40.5,15,39.8,15
	c-0.9,0-1.7,0.3-2.3,0.9c-0.6,0.6-1,1.5-1.1,2.7v0l0,0c0.7-0.6,1.7-1,3-1c1.5,0,2.6,0.4,3.4,1.2c0.8,0.8,1.2,1.9,1.2,3.3
	c0,1.5-0.5,2.8-1.4,3.6C41.8,26.8,40.5,27.2,38.9,27.2z M46.3,27.8c-0.3,0-0.4-0.1-0.6-0.3c-0.1-0.2-0.1-0.4,0-0.7l5.7-12.7
	c0.1-0.3,0.3-0.5,0.6-0.7c0.3-0.2,0.6-0.3,0.9-0.3h0.2c0.3,0,0.5,0.1,0.6,0.3c0.1,0.2,0.2,0.4,0,0.7l-5.7,12.7
	c-0.1,0.3-0.3,0.5-0.6,0.7c-0.3,0.2-0.6,0.3-0.9,0.3H46.3z M65.2,17c0,1.2-0.4,2.3-1.1,3.4c-0.7,1.1-2.2,2.5-4.4,4.4c0,0,0,0,0,0.1
	s0,0,0,0h4.5c0.3,0,0.5,0.1,0.8,0.3c0.2,0.2,0.3,0.5,0.3,0.7c0,0.3-0.1,0.5-0.3,0.8S64.4,27,64.1,27h-7c-0.3,0-0.5-0.1-0.8-0.3
	c-0.2-0.2-0.3-0.5-0.3-0.8c0-0.7,0.3-1.3,0.8-1.7c2.2-1.7,3.7-3.1,4.4-4.1c0.7-1,1.1-1.9,1.1-2.8c0-1.4-0.8-2.1-2.3-2.1
	c-0.8,0-1.7,0.2-2.8,0.6c-0.2,0.1-0.5,0.1-0.7-0.1c-0.2-0.1-0.3-0.3-0.3-0.6v-0.3c0-0.3,0.1-0.6,0.3-0.9c0.2-0.3,0.4-0.5,0.7-0.6
	c1.1-0.3,2.1-0.5,3.2-0.5c1.5,0,2.6,0.4,3.4,1.1S65.2,15.7,65.2,17z M74.7,16.2c-0.4-0.8-1.1-1.1-2-1.1c-0.9,0-1.5,0.4-2,1.1
	c-0.4,0.8-0.6,2.1-0.6,3.9s0.2,3.2,0.6,3.9c0.4,0.8,1.1,1.1,2,1.1c0.9,0,1.5-0.4,2-1.1c0.4-0.8,0.6-2.1,0.6-3.9S75.2,16.9,74.7,16.2
	z M76.8,25.5c-0.9,1.1-2.2,1.7-4,1.7c-1.8,0-3.1-0.6-4-1.7c-0.9-1.1-1.3-2.9-1.3-5.4s0.4-4.3,1.3-5.4c0.9-1.1,2.2-1.7,4-1.7
	c1.8,0,3.1,0.6,4,1.7c0.9,1.1,1.3,2.9,1.3,5.4S77.6,24.4,76.8,25.5z"/>
<path class="st4" d="M98.6,16.5l-1.2,4.4c0,0,0,0.1,0,0.1s0,0,0.1,0h2.3c0,0,0.1,0,0.1,0s0-0.1,0-0.1L98.6,16.5
	C98.6,16.5,98.6,16.5,98.6,16.5C98.6,16.5,98.6,16.5,98.6,16.5z M95,25c-0.2,0-0.4-0.1-0.5-0.2c-0.1-0.2-0.1-0.3-0.1-0.5l2.9-8.7
	c0.1-0.2,0.2-0.4,0.4-0.5c0.2-0.1,0.4-0.2,0.6-0.2h0.5c0.2,0,0.5,0.1,0.6,0.2c0.2,0.1,0.3,0.3,0.4,0.5l2.9,8.7
	c0.1,0.2,0,0.4-0.1,0.5c-0.1,0.2-0.3,0.2-0.5,0.2h-0.5c-0.2,0-0.4-0.1-0.6-0.2c-0.2-0.1-0.3-0.3-0.4-0.6l-0.4-1.6
	c0-0.1-0.1-0.1-0.2-0.1h-3.2c-0.1,0-0.1,0-0.2,0.1l-0.4,1.6c-0.1,0.2-0.2,0.4-0.4,0.6c-0.2,0.1-0.4,0.2-0.6,0.2H95z M105.3,25
	c-0.2,0-0.4-0.1-0.6-0.2c-0.2-0.2-0.2-0.3-0.2-0.6v-5.7c0-0.2,0.1-0.4,0.2-0.6c0.2-0.2,0.3-0.2,0.6-0.2h0.4c0.2,0,0.4,0.1,0.6,0.2
	c0.2,0.2,0.2,0.3,0.2,0.6v5.7c0,0.2-0.1,0.4-0.2,0.6c-0.2,0.2-0.3,0.2-0.6,0.2H105.3z M105.3,16.2c-0.2,0-0.4-0.1-0.6-0.2
	c-0.2-0.2-0.2-0.3-0.2-0.6v-0.1c0-0.2,0.1-0.4,0.2-0.6c0.2-0.2,0.3-0.2,0.6-0.2h0.4c0.2,0,0.4,0.1,0.6,0.2c0.2,0.2,0.2,0.3,0.2,0.6
	v0.1c0,0.2-0.1,0.4-0.2,0.6c-0.2,0.2-0.3,0.2-0.6,0.2H105.3z M109.1,25c-0.2,0-0.3-0.1-0.4-0.2s-0.1-0.3,0-0.4l1.8-2.9
	c0-0.1,0-0.1,0-0.2l-1.7-2.8c-0.1-0.1-0.1-0.3,0-0.4s0.2-0.2,0.4-0.2h0.4c0.2,0,0.5,0.1,0.7,0.2c0.2,0.1,0.4,0.3,0.5,0.5l1,1.8
	c0,0,0,0,0,0c0,0,0,0,0,0l1-1.8c0.1-0.2,0.3-0.4,0.5-0.5c0.2-0.1,0.4-0.2,0.7-0.2h0.4c0.2,0,0.3,0.1,0.4,0.2s0.1,0.3,0,0.4l-1.7,2.8
	c0,0.1,0,0.1,0,0.2l1.8,2.9c0.1,0.1,0.1,0.3,0,0.4s-0.2,0.2-0.4,0.2h-0.4c-0.3,0-0.5-0.1-0.7-0.2c-0.2-0.1-0.4-0.3-0.5-0.5l-1-2
	c0,0,0,0,0,0c0,0,0,0,0,0l-1,2c-0.1,0.2-0.3,0.4-0.5,0.5c-0.2,0.1-0.4,0.2-0.7,0.2H109.1z M120.5,19.5c-0.3-0.4-0.7-0.6-1.2-0.6
	s-1,0.2-1.2,0.6c-0.3,0.4-0.4,1-0.4,1.8s0.1,1.5,0.4,1.8c0.3,0.4,0.7,0.6,1.2,0.6s1-0.2,1.2-0.6c0.3-0.4,0.4-1,0.4-1.8
	S120.8,19.9,120.5,19.5z M121.9,24.2c-0.6,0.7-1.5,1-2.6,1s-2-0.3-2.6-1c-0.6-0.7-0.9-1.6-0.9-2.8s0.3-2.1,0.9-2.8
	c0.6-0.7,1.5-1,2.6-1s2,0.3,2.6,1c0.6,0.7,0.9,1.6,0.9,2.8S122.5,23.5,121.9,24.2z M118.3,14.3c0.5,0,0.9,0.2,1.2,0.7l0.7,1.1
	c0.1,0.1,0.1,0.3,0,0.4c-0.1,0.1-0.2,0.2-0.4,0.2h-0.1c-0.5,0-1-0.2-1.3-0.6l-1.1-1.2c-0.1-0.1-0.1-0.2-0.1-0.4
	c0.1-0.1,0.2-0.2,0.3-0.2H118.3z M131.2,18.9c-0.5,0-0.8,0.1-1.1,0.4c-0.3,0.3-0.4,0.7-0.5,1.3c0,0.1,0,0.1,0.1,0.1h2.7
	c0.1,0,0.1,0,0.1-0.1C132.5,19.4,132.1,18.9,131.2,18.9z M131.5,25.1c-1.2,0-2.2-0.3-2.8-1c-0.7-0.6-1-1.6-1-2.8
	c0-1.2,0.3-2.2,0.9-2.8c0.6-0.6,1.4-1,2.5-1c2.1,0,3.1,1.2,3.2,3.5c0,0.2-0.1,0.4-0.2,0.6c-0.2,0.1-0.4,0.2-0.6,0.2h-3.8
	c-0.1,0-0.1,0-0.1,0.1c0.1,0.6,0.3,1.1,0.6,1.4c0.4,0.3,0.9,0.4,1.5,0.4c0.4,0,0.9-0.1,1.4-0.2c0.2,0,0.3,0,0.5,0.1
	c0.1,0.1,0.2,0.2,0.2,0.4c0,0.2-0.1,0.4-0.2,0.6c-0.1,0.2-0.3,0.3-0.5,0.3C132.6,25.1,132.1,25.1,131.5,25.1z M131.7,14.3h0.7
	c0.2,0,0.3,0.1,0.3,0.2c0.1,0.1,0,0.3-0.1,0.4l-1.1,1.2c-0.3,0.4-0.8,0.6-1.3,0.6h-0.1c-0.2,0-0.3-0.1-0.4-0.2
	c-0.1-0.1-0.1-0.3,0-0.4l0.7-1.1C130.8,14.5,131.2,14.3,131.7,14.3z M138.4,22.1c-1-0.2-1.7-0.5-2.1-0.9c-0.4-0.4-0.6-0.9-0.6-1.5
	c0-0.7,0.2-1.2,0.7-1.6c0.5-0.4,1.2-0.6,2.2-0.6c0.6,0,1.2,0.1,1.8,0.2c0.2,0,0.4,0.1,0.5,0.3c0.1,0.2,0.2,0.3,0.2,0.6
	c0,0.2-0.1,0.3-0.2,0.4c-0.1,0.1-0.3,0.1-0.5,0.1c-0.5-0.1-1.1-0.2-1.7-0.2c-0.8,0-1.3,0.2-1.3,0.7c0,0.2,0.1,0.4,0.2,0.6
	c0.2,0.1,0.4,0.3,0.8,0.4c1.1,0.2,1.8,0.5,2.2,0.9c0.4,0.4,0.6,0.9,0.6,1.6c0,0.7-0.3,1.2-0.8,1.6s-1.2,0.6-2.2,0.6
	c-0.6,0-1.3-0.1-1.9-0.2c-0.2,0-0.4-0.2-0.5-0.3c-0.1-0.2-0.2-0.4-0.2-0.6c0-0.2,0.1-0.3,0.2-0.4c0.2-0.1,0.3-0.1,0.5-0.1
	c0.6,0.2,1.2,0.3,1.7,0.3c0.8,0,1.3-0.3,1.3-0.8c0-0.2-0.1-0.4-0.3-0.6C139.1,22.3,138.8,22.2,138.4,22.1z M149.4,25.1
	c-0.8,0-1.4-0.2-1.8-0.7c-0.4-0.5-0.6-1.2-0.6-2.3v-3.6c0-0.2,0.1-0.4,0.2-0.6c0.2-0.2,0.3-0.2,0.6-0.2h0.2c0.2,0,0.4,0.1,0.6,0.2
	c0.2,0.2,0.2,0.3,0.2,0.6V22c0,0.7,0.1,1.1,0.3,1.4c0.2,0.3,0.5,0.4,0.9,0.4c0.4,0,0.7-0.2,1.1-0.5c0.3-0.3,0.5-0.7,0.5-1v-3.6
	c0-0.2,0.1-0.4,0.2-0.6c0.2-0.2,0.3-0.2,0.6-0.2h0.3c0.2,0,0.4,0.1,0.5,0.2c0.2,0.2,0.2,0.3,0.2,0.6v5.7c0,0.2-0.1,0.4-0.2,0.6
	c-0.1,0.2-0.3,0.2-0.5,0.2h-0.2c-0.2,0-0.4-0.1-0.6-0.2c-0.1-0.2-0.2-0.4-0.2-0.6l0-0.1c0,0,0,0,0,0s0,0,0,0
	C151,24.8,150.2,25.1,149.4,25.1z M156.2,25c-0.2,0-0.4-0.1-0.6-0.2c-0.2-0.2-0.2-0.3-0.2-0.6v-5.7c0-0.2,0.1-0.4,0.2-0.6
	c0.2-0.2,0.3-0.2,0.6-0.2h0.2c0.2,0,0.4,0.1,0.6,0.2c0.2,0.1,0.2,0.3,0.3,0.6v0.1c0,0,0,0,0,0c0,0,0,0,0,0c0.6-0.7,1.4-1,2.2-1
	c0.9,0,1.5,0.2,1.8,0.7c0.4,0.5,0.6,1.3,0.6,2.4v3.5c0,0.2-0.1,0.4-0.2,0.6c-0.2,0.2-0.3,0.2-0.6,0.2h-0.2c-0.2,0-0.4-0.1-0.6-0.2
	c-0.1-0.2-0.2-0.3-0.2-0.6v-3.4c0-0.7-0.1-1.2-0.3-1.4c-0.2-0.3-0.5-0.4-1-0.4c-0.4,0-0.7,0.2-1.1,0.5c-0.3,0.3-0.5,0.7-0.5,1.1v3.6
	c0,0.2-0.1,0.4-0.2,0.6c-0.2,0.2-0.3,0.2-0.6,0.2H156.2z M167.2,21.5c-1.3,0-2,0.4-2,1.2c0,0.3,0.1,0.5,0.3,0.7
	c0.2,0.2,0.4,0.3,0.7,0.3c0.5,0,1-0.2,1.3-0.5c0.3-0.3,0.5-0.8,0.5-1.4v-0.3c0-0.1,0-0.1-0.1-0.1H167.2z M165.6,25.1
	c-0.6,0-1.2-0.2-1.6-0.6c-0.4-0.4-0.6-1-0.6-1.6c0-0.8,0.3-1.4,0.9-1.9c0.6-0.4,1.6-0.7,2.9-0.7h0.6c0.1,0,0.1,0,0.1-0.1v-0.1
	c0-0.4-0.1-0.7-0.3-0.9c-0.2-0.2-0.6-0.3-1.1-0.3c-0.5,0-1.2,0.1-2,0.3c-0.2,0-0.3,0-0.5-0.1c-0.1-0.1-0.2-0.3-0.2-0.4
	c0-0.2,0.1-0.4,0.2-0.6c0.1-0.2,0.3-0.3,0.5-0.3c0.7-0.2,1.4-0.2,2-0.2c1.2,0,2,0.2,2.5,0.6s0.7,1.2,0.7,2.3v3.7
	c0,0.2-0.1,0.4-0.2,0.6c-0.1,0.2-0.3,0.2-0.5,0.2h-0.2c-0.2,0-0.4-0.1-0.6-0.2c-0.2-0.2-0.2-0.4-0.3-0.6V24c0,0,0,0,0,0c0,0,0,0,0,0
	C167.3,24.8,166.6,25.1,165.6,25.1z M177.4,20.4v1.9c0,0.4,0.2,0.7,0.5,1c0.3,0.3,0.7,0.4,1.1,0.4c0.5,0,0.9-0.2,1.2-0.6
	c0.3-0.4,0.4-1,0.4-1.8c0-1.6-0.5-2.4-1.6-2.4c-0.4,0-0.8,0.1-1.1,0.4C177.6,19.7,177.4,20,177.4,20.4z M176.3,28.1
	c-0.2,0-0.4-0.1-0.6-0.2c-0.2-0.2-0.2-0.3-0.2-0.6v-8.8c0-0.2,0.1-0.4,0.2-0.6c0.2-0.2,0.3-0.2,0.6-0.2h0.2c0.2,0,0.4,0.1,0.6,0.2
	c0.2,0.1,0.2,0.3,0.3,0.6v0.1c0,0,0,0,0,0s0,0,0,0c0.3-0.4,0.7-0.6,1-0.8c0.3-0.2,0.7-0.2,1.2-0.2c0.9,0,1.6,0.3,2.1,1
	c0.5,0.7,0.8,1.6,0.8,2.8c0,1.2-0.3,2.1-0.8,2.8c-0.5,0.7-1.2,1-2.1,1c-0.8,0-1.5-0.3-2.1-0.9c0,0,0,0,0,0s0,0,0,0v3
	c0,0.2-0.1,0.4-0.2,0.6c-0.1,0.2-0.3,0.2-0.5,0.2H176.3z M184.8,25c-0.2,0-0.4-0.1-0.6-0.2c-0.2-0.2-0.2-0.3-0.2-0.6v-5.7
	c0-0.2,0.1-0.4,0.2-0.6c0.2-0.2,0.3-0.2,0.6-0.2h0.3c0.2,0,0.4,0.1,0.6,0.2c0.2,0.2,0.2,0.3,0.2,0.6v0.6c0,0,0,0,0,0c0,0,0,0,0,0
	c0.3-0.4,0.6-0.7,1.1-0.9c0.4-0.2,0.9-0.4,1.4-0.4c0.2,0,0.4,0,0.5,0.2c0.1,0.1,0.2,0.3,0.2,0.5s-0.1,0.4-0.2,0.5s-0.3,0.2-0.5,0.2
	c-1.7,0.1-2.5,1-2.5,2.5v2.5c0,0.2-0.1,0.4-0.2,0.6c-0.2,0.2-0.3,0.2-0.6,0.2H184.8z M194.8,19.5c-0.3-0.4-0.7-0.6-1.2-0.6
	c-0.6,0-1,0.2-1.2,0.6c-0.3,0.4-0.4,1-0.4,1.8s0.1,1.5,0.4,1.8c0.3,0.4,0.7,0.6,1.2,0.6c0.6,0,1-0.2,1.2-0.6c0.3-0.4,0.4-1,0.4-1.8
	S195,19.9,194.8,19.5z M196.1,24.2c-0.6,0.7-1.5,1-2.6,1s-2-0.3-2.6-1c-0.6-0.7-0.9-1.6-0.9-2.8s0.3-2.1,0.9-2.8
	c0.6-0.7,1.5-1,2.6-1s2,0.3,2.6,1c0.6,0.7,0.9,1.6,0.9,2.8S196.8,23.5,196.1,24.2z M199.7,24.2l-1.9-5.8c-0.1-0.2,0-0.4,0.1-0.5
	c0.1-0.2,0.3-0.2,0.5-0.2h0.4c0.2,0,0.4,0.1,0.6,0.2c0.2,0.1,0.3,0.3,0.4,0.5l1.4,5.4c0,0,0,0,0,0c0,0,0,0,0,0l1.4-5.4
	c0.1-0.2,0.2-0.4,0.4-0.5c0.2-0.1,0.4-0.2,0.6-0.2h0.4c0.2,0,0.3,0.1,0.5,0.2c0.1,0.2,0.1,0.3,0.1,0.5l-1.9,5.8
	c-0.1,0.2-0.2,0.4-0.4,0.5c-0.2,0.1-0.4,0.2-0.6,0.2h-0.9c-0.2,0-0.4-0.1-0.6-0.2C199.9,24.6,199.8,24.5,199.7,24.2z M209.2,21.5
	c-1.3,0-2,0.4-2,1.2c0,0.3,0.1,0.5,0.3,0.7c0.2,0.2,0.4,0.3,0.7,0.3c0.5,0,1-0.2,1.3-0.5c0.3-0.3,0.5-0.8,0.5-1.4v-0.3
	c0-0.1,0-0.1-0.1-0.1H209.2z M207.6,25.1c-0.6,0-1.2-0.2-1.6-0.6c-0.4-0.4-0.6-1-0.6-1.6c0-0.8,0.3-1.4,0.9-1.9
	c0.6-0.4,1.6-0.7,2.9-0.7h0.6c0.1,0,0.1,0,0.1-0.1v-0.1c0-0.4-0.1-0.7-0.3-0.9c-0.2-0.2-0.6-0.3-1.1-0.3c-0.5,0-1.2,0.1-2,0.3
	c-0.2,0-0.3,0-0.5-0.1c-0.1-0.1-0.2-0.3-0.2-0.4c0-0.2,0.1-0.4,0.2-0.6c0.1-0.2,0.3-0.3,0.5-0.3c0.7-0.2,1.4-0.2,2-0.2
	c1.2,0,2,0.2,2.5,0.6c0.5,0.4,0.7,1.2,0.7,2.3v3.7c0,0.2-0.1,0.4-0.2,0.6c-0.2,0.2-0.3,0.2-0.5,0.2h-0.2c-0.2,0-0.4-0.1-0.6-0.2
	c-0.2-0.2-0.2-0.4-0.3-0.6V24c0,0,0,0,0,0c0,0,0,0,0,0C209.4,24.8,208.6,25.1,207.6,25.1z M220.6,19c-1.1,0-1.6,0.8-1.6,2.4
	c0,0.8,0.1,1.4,0.4,1.8c0.3,0.4,0.7,0.6,1.2,0.6c0.4,0,0.8-0.1,1.1-0.4c0.3-0.3,0.5-0.6,0.5-1v-1.9c0-0.4-0.2-0.7-0.5-1
	C221.4,19.1,221,19,220.6,19z M220,25.1c-0.8,0-1.5-0.3-2.1-1c-0.6-0.7-0.8-1.6-0.8-2.8c0-1.2,0.3-2.1,0.8-2.8c0.5-0.7,1.2-1,2.1-1
	c0.8,0,1.5,0.3,2.1,0.9c0,0,0,0,0,0c0,0,0,0,0,0v-3.1c0-0.2,0.1-0.4,0.2-0.6c0.2-0.2,0.3-0.2,0.6-0.2h0.3c0.2,0,0.4,0.1,0.6,0.2
	c0.2,0.2,0.2,0.3,0.2,0.6v8.9c0,0.2-0.1,0.4-0.2,0.6c-0.2,0.2-0.3,0.2-0.6,0.2h-0.2c-0.2,0-0.4-0.1-0.6-0.2
	c-0.1-0.2-0.2-0.4-0.2-0.6l0-0.1c0,0,0,0,0,0c0,0,0,0,0,0C221.6,24.8,220.9,25.1,220,25.1z M229,18.9c-0.5,0-0.8,0.1-1.1,0.4
	c-0.3,0.3-0.4,0.7-0.5,1.3c0,0.1,0,0.1,0.1,0.1h2.7c0.1,0,0.1,0,0.1-0.1C230.4,19.4,229.9,18.9,229,18.9z M229.4,25.1
	c-1.2,0-2.2-0.3-2.8-1c-0.7-0.6-1-1.6-1-2.8c0-1.2,0.3-2.2,0.9-2.8c0.6-0.6,1.4-1,2.5-1c2.1,0,3.1,1.2,3.2,3.5
	c0,0.2-0.1,0.4-0.2,0.6s-0.4,0.2-0.6,0.2h-3.8c-0.1,0-0.1,0-0.1,0.1c0.1,0.6,0.3,1.1,0.6,1.4c0.4,0.3,0.9,0.4,1.5,0.4
	c0.4,0,0.9-0.1,1.4-0.2c0.2,0,0.3,0,0.5,0.1c0.1,0.1,0.2,0.2,0.2,0.4c0,0.2-0.1,0.4-0.2,0.6c-0.1,0.2-0.3,0.3-0.5,0.3
	C230.5,25.1,229.9,25.1,229.4,25.1z M238.9,25c-0.2,0-0.4-0.1-0.6-0.2c-0.2-0.2-0.2-0.3-0.2-0.6v-8.9c0-0.2,0.1-0.4,0.2-0.6
	c0.2-0.2,0.3-0.2,0.6-0.2h0.4c0.2,0,0.4,0.1,0.6,0.2c0.2,0.2,0.2,0.3,0.2,0.6v8.9c0,0.2-0.1,0.4-0.2,0.6c-0.2,0.2-0.3,0.2-0.6,0.2
	H238.9z M245.8,21.5c-1.3,0-2,0.4-2,1.2c0,0.3,0.1,0.5,0.3,0.7c0.2,0.2,0.4,0.3,0.7,0.3c0.5,0,1-0.2,1.3-0.5
	c0.3-0.3,0.5-0.8,0.5-1.4v-0.3c0-0.1,0-0.1-0.1-0.1H245.8z M244.3,25.1c-0.6,0-1.2-0.2-1.6-0.6c-0.4-0.4-0.6-1-0.6-1.6
	c0-0.8,0.3-1.4,0.9-1.9c0.6-0.4,1.6-0.7,2.9-0.7h0.6c0.1,0,0.1,0,0.1-0.1v-0.1c0-0.4-0.1-0.7-0.3-0.9c-0.2-0.2-0.6-0.3-1.1-0.3
	c-0.5,0-1.2,0.1-2,0.3c-0.2,0-0.3,0-0.5-0.1c-0.1-0.1-0.2-0.3-0.2-0.4c0-0.2,0.1-0.4,0.2-0.6c0.1-0.2,0.3-0.3,0.5-0.3
	c0.7-0.2,1.4-0.2,2-0.2c1.2,0,2,0.2,2.5,0.6c0.5,0.4,0.7,1.2,0.7,2.3v3.7c0,0.2-0.1,0.4-0.2,0.6c-0.1,0.2-0.3,0.2-0.5,0.2h-0.2
	c-0.2,0-0.4-0.1-0.6-0.2c-0.2-0.2-0.2-0.4-0.3-0.6V24c0,0,0,0,0,0c0,0,0,0,0,0C246,24.8,245.3,25.1,244.3,25.1z M255,25
	c-0.2,0-0.4-0.1-0.6-0.2c-0.1-0.2-0.2-0.3-0.2-0.6v-5.7c0-0.2,0.1-0.4,0.2-0.6c0.2-0.2,0.3-0.2,0.6-0.2h0.2c0.2,0,0.4,0.1,0.5,0.2
	c0.2,0.1,0.2,0.3,0.3,0.5v0.1c0,0,0,0,0,0c0,0,0,0,0,0c0.6-0.7,1.2-1,1.9-1c0.4,0,0.8,0.1,1,0.2c0.3,0.2,0.5,0.4,0.7,0.8
	c0,0,0,0,0,0c0,0,0,0,0,0c0.6-0.7,1.3-1.1,2-1.1c0.8,0,1.3,0.2,1.7,0.6c0.3,0.4,0.5,1.1,0.5,2.2v3.8c0,0.2-0.1,0.4-0.2,0.6
	c-0.1,0.2-0.3,0.2-0.5,0.2h-0.2c-0.2,0-0.4-0.1-0.6-0.2c-0.2-0.2-0.2-0.3-0.2-0.6v-3.5c0-0.7-0.1-1.1-0.2-1.3
	c-0.1-0.2-0.4-0.3-0.8-0.3c-0.2,0-0.5,0.1-0.7,0.3c-0.2,0.2-0.4,0.4-0.4,0.7v4.2c0,0.2-0.1,0.4-0.2,0.6c-0.2,0.2-0.3,0.2-0.6,0.2
	h-0.2c-0.2,0-0.4-0.1-0.6-0.2c-0.1-0.2-0.2-0.3-0.2-0.6v-3.5c0-0.7-0.1-1.1-0.2-1.3c-0.1-0.2-0.4-0.3-0.8-0.3
	c-0.2,0-0.5,0.1-0.7,0.3c-0.2,0.2-0.4,0.4-0.4,0.7v4.2c0,0.2-0.1,0.4-0.2,0.6c-0.2,0.2-0.3,0.2-0.6,0.2H255z M266.9,25
	c-0.2,0-0.4-0.1-0.6-0.2c-0.2-0.2-0.2-0.3-0.2-0.6v-5.7c0-0.2,0.1-0.4,0.2-0.6c0.2-0.2,0.3-0.2,0.6-0.2h0.4c0.2,0,0.4,0.1,0.6,0.2
	c0.2,0.2,0.2,0.3,0.2,0.6v5.7c0,0.2-0.1,0.4-0.2,0.6c-0.2,0.2-0.3,0.2-0.6,0.2H266.9z M266.9,16.2c-0.2,0-0.4-0.1-0.6-0.2
	s-0.2-0.3-0.2-0.6v-0.1c0-0.2,0.1-0.4,0.2-0.6c0.2-0.2,0.3-0.2,0.6-0.2h0.4c0.2,0,0.4,0.1,0.6,0.2c0.2,0.2,0.2,0.3,0.2,0.6v0.1
	c0,0.2-0.1,0.4-0.2,0.6c-0.2,0.2-0.3,0.2-0.6,0.2H266.9z M273,22.1c-1-0.2-1.7-0.5-2.1-0.9c-0.4-0.4-0.6-0.9-0.6-1.5
	c0-0.7,0.2-1.2,0.7-1.6c0.5-0.4,1.2-0.6,2.2-0.6c0.6,0,1.2,0.1,1.8,0.2c0.2,0,0.4,0.1,0.5,0.3c0.1,0.2,0.2,0.3,0.2,0.6
	c0,0.2-0.1,0.3-0.2,0.4c-0.1,0.1-0.3,0.1-0.5,0.1c-0.5-0.1-1.1-0.2-1.7-0.2c-0.8,0-1.3,0.2-1.3,0.7c0,0.2,0.1,0.4,0.2,0.6
	c0.2,0.1,0.4,0.3,0.8,0.4c1.1,0.2,1.8,0.5,2.2,0.9c0.4,0.4,0.6,0.9,0.6,1.6c0,0.7-0.3,1.2-0.8,1.6s-1.2,0.6-2.2,0.6
	c-0.6,0-1.3-0.1-1.9-0.2c-0.2,0-0.4-0.2-0.5-0.3c-0.1-0.2-0.2-0.4-0.2-0.6c0-0.2,0.1-0.3,0.2-0.4c0.1-0.1,0.3-0.1,0.5-0.1
	c0.6,0.2,1.2,0.3,1.7,0.3c0.8,0,1.3-0.3,1.3-0.8c0-0.2-0.1-0.4-0.3-0.6C273.7,22.3,273.4,22.2,273,22.1z M280.1,22.1
	c-1-0.2-1.7-0.5-2.1-0.9c-0.4-0.4-0.6-0.9-0.6-1.5c0-0.7,0.2-1.2,0.7-1.6c0.5-0.4,1.2-0.6,2.2-0.6c0.6,0,1.2,0.1,1.8,0.2
	c0.2,0,0.4,0.1,0.5,0.3c0.1,0.2,0.2,0.3,0.2,0.6c0,0.2-0.1,0.3-0.2,0.4c-0.1,0.1-0.3,0.1-0.5,0.1c-0.5-0.1-1.1-0.2-1.7-0.2
	c-0.8,0-1.3,0.2-1.3,0.7c0,0.2,0.1,0.4,0.2,0.6c0.2,0.1,0.4,0.3,0.8,0.4c1.1,0.2,1.8,0.5,2.2,0.9c0.4,0.4,0.6,0.9,0.6,1.6
	c0,0.7-0.3,1.2-0.8,1.6s-1.2,0.6-2.2,0.6c-0.6,0-1.3-0.1-1.9-0.2c-0.2,0-0.4-0.2-0.5-0.3c-0.1-0.2-0.2-0.4-0.2-0.6
	c0-0.2,0.1-0.3,0.2-0.4c0.1-0.1,0.3-0.1,0.5-0.1c0.6,0.2,1.2,0.3,1.7,0.3c0.8,0,1.3-0.3,1.3-0.8c0-0.2-0.1-0.4-0.3-0.6
	C280.8,22.3,280.5,22.2,280.1,22.1z M288.2,21.5c-1.3,0-2,0.4-2,1.2c0,0.3,0.1,0.5,0.3,0.7c0.2,0.2,0.4,0.3,0.7,0.3
	c0.5,0,1-0.2,1.3-0.5c0.3-0.3,0.5-0.8,0.5-1.4v-0.3c0-0.1,0-0.1-0.1-0.1H288.2z M286.6,25.1c-0.6,0-1.2-0.2-1.6-0.6
	c-0.4-0.4-0.6-1-0.6-1.6c0-0.8,0.3-1.4,0.9-1.9c0.6-0.4,1.6-0.7,2.9-0.7h0.6c0.1,0,0.1,0,0.1-0.1v-0.1c0-0.4-0.1-0.7-0.3-0.9
	c-0.2-0.2-0.6-0.3-1.1-0.3c-0.5,0-1.2,0.1-2,0.3c-0.2,0-0.3,0-0.5-0.1c-0.1-0.1-0.2-0.3-0.2-0.4c0-0.2,0.1-0.4,0.2-0.6
	c0.1-0.2,0.3-0.3,0.5-0.3c0.7-0.2,1.4-0.2,2-0.2c1.2,0,2,0.2,2.5,0.6c0.5,0.4,0.7,1.2,0.7,2.3v3.7c0,0.2-0.1,0.4-0.2,0.6
	c-0.1,0.2-0.3,0.2-0.5,0.2h-0.2c-0.2,0-0.4-0.1-0.6-0.2c-0.2-0.2-0.2-0.4-0.3-0.6V24c0,0,0,0,0,0c0,0,0,0,0,0
	C288.4,24.8,287.6,25.1,286.6,25.1z M292.5,19.4c-0.2,0-0.3-0.1-0.5-0.2c-0.1-0.1-0.2-0.3-0.2-0.5s0.1-0.3,0.2-0.5
	c0.1-0.1,0.3-0.2,0.5-0.2h0.7c0.1,0,0.1,0,0.1-0.1v-1.7c0-0.2,0.1-0.4,0.2-0.6c0.2-0.2,0.3-0.2,0.6-0.2h0.3c0.2,0,0.4,0.1,0.6,0.2
	c0.2,0.2,0.2,0.3,0.2,0.6v1.7c0,0.1,0,0.1,0.1,0.1h1.6c0.2,0,0.3,0.1,0.5,0.2c0.1,0.1,0.2,0.3,0.2,0.5s-0.1,0.4-0.2,0.5
	c-0.1,0.1-0.3,0.2-0.5,0.2h-1.6c-0.1,0-0.1,0-0.1,0.1v2.8c0,0.6,0.1,1,0.2,1.2c0.1,0.2,0.4,0.3,0.8,0.3c0.2,0,0.4,0,0.5,0
	c0.2,0,0.4,0,0.5,0.1c0.1,0.1,0.2,0.2,0.2,0.4c0,0.2-0.1,0.4-0.2,0.6c-0.1,0.2-0.3,0.2-0.5,0.3c-0.4,0-0.7,0.1-0.9,0.1
	c-0.9,0-1.5-0.2-1.9-0.6c-0.4-0.4-0.5-1.1-0.5-2.1v-3c0-0.1,0-0.1-0.1-0.1H292.5z M302.4,19c-1,0-1.5,0.7-1.5,2.2
	c0,0.8,0.1,1.4,0.4,1.7c0.3,0.4,0.7,0.6,1.1,0.6c0.4,0,0.8-0.1,1.1-0.4c0.3-0.3,0.5-0.6,0.5-1.1v-1.5c0-0.4-0.2-0.8-0.5-1.1
	C303.2,19.1,302.8,19,302.4,19z M301.8,24.9c-0.8,0-1.5-0.3-2-1c-0.5-0.7-0.8-1.6-0.8-2.7s0.2-2.1,0.7-2.7c0.5-0.6,1.2-1,2.1-1
	c0.4,0,0.8,0.1,1.2,0.2c0.3,0.2,0.7,0.4,1,0.8c0,0,0,0,0,0c0,0,0,0,0,0v-0.1c0-0.2,0.1-0.4,0.3-0.6c0.2-0.2,0.4-0.2,0.6-0.2h0.2
	c0.2,0,0.4,0.1,0.5,0.2c0.2,0.2,0.2,0.3,0.2,0.6v5.9c0,2.5-1.3,3.8-3.8,3.8c-0.4,0-0.9,0-1.4-0.1c-0.2,0-0.4-0.1-0.6-0.3
	c-0.1-0.2-0.2-0.4-0.2-0.6c0-0.2,0.1-0.3,0.2-0.4c0.2-0.1,0.3-0.1,0.5-0.1c0.4,0.1,0.9,0.2,1.4,0.2c0.7,0,1.2-0.2,1.5-0.5
	c0.3-0.4,0.5-0.9,0.5-1.8V24c0,0,0,0,0,0c0,0,0,0,0,0C303.3,24.6,302.6,24.9,301.8,24.9z M310.7,18.9c-0.5,0-0.8,0.1-1.1,0.4
	c-0.3,0.3-0.4,0.7-0.5,1.3c0,0.1,0,0.1,0.1,0.1h2.7c0.1,0,0.1,0,0.1-0.1C312,19.4,311.5,18.9,310.7,18.9z M311,25.1
	c-1.2,0-2.2-0.3-2.8-1c-0.7-0.6-1-1.6-1-2.8c0-1.2,0.3-2.2,0.9-2.8c0.6-0.6,1.4-1,2.5-1c2.1,0,3.1,1.2,3.2,3.5
	c0,0.2-0.1,0.4-0.2,0.6s-0.4,0.2-0.6,0.2h-3.8c-0.1,0-0.1,0-0.1,0.1c0.1,0.6,0.3,1.1,0.6,1.4c0.4,0.3,0.9,0.4,1.5,0.4
	c0.4,0,0.9-0.1,1.4-0.2c0.2,0,0.3,0,0.5,0.1c0.1,0.1,0.2,0.2,0.2,0.4c0,0.2-0.1,0.4-0.2,0.6c-0.1,0.2-0.3,0.3-0.5,0.3
	C312.1,25.1,311.6,25.1,311,25.1z M316.3,25c-0.2,0-0.4-0.1-0.6-0.2c-0.2-0.2-0.2-0.3-0.2-0.6v-0.8c0-0.2,0.1-0.4,0.2-0.6
	c0.2-0.2,0.3-0.2,0.6-0.2h0.6c0.2,0,0.4,0.1,0.6,0.2c0.2,0.2,0.2,0.3,0.2,0.6v0.8c0,0.2-0.1,0.4-0.2,0.6c-0.2,0.2-0.3,0.2-0.6,0.2
	H316.3z M320.6,25c-0.2,0-0.4-0.1-0.6-0.2c-0.2-0.2-0.2-0.3-0.2-0.6v-0.8c0-0.2,0.1-0.4,0.2-0.6c0.2-0.2,0.3-0.2,0.6-0.2h0.6
	c0.2,0,0.4,0.1,0.6,0.2c0.2,0.2,0.2,0.3,0.2,0.6v0.8c0,0.2-0.1,0.4-0.2,0.6c-0.2,0.2-0.3,0.2-0.6,0.2H320.6z M325,25
	c-0.2,0-0.4-0.1-0.6-0.2c-0.2-0.2-0.2-0.3-0.2-0.6v-0.8c0-0.2,0.1-0.4,0.2-0.6c0.2-0.2,0.3-0.2,0.6-0.2h0.6c0.2,0,0.4,0.1,0.6,0.2
	c0.2,0.2,0.2,0.3,0.2,0.6v0.8c0,0.2-0.1,0.4-0.2,0.6c-0.2,0.2-0.3,0.2-0.6,0.2H325z"/>
</svg>
